<svg id="Layer_1" data-name="Layer 1" xmlns="http://www.w3.org/2000/svg" viewBox="0 0 24 24"><defs><style>.cls-1{fill:#666;}</style></defs><path class="cls-1" d="M18.81,15V8.69a.93.93,0,0,1,.94,1.08v4.1C19.75,14.56,19.44,14.91,18.81,15Z"/><path class="cls-1" d="M16.92,16.09V7.49a1.06,1.06,0,0,1,1,1.18v6.24A1.06,1.06,0,0,1,16.92,16.09Z"/><path class="cls-1" d="M4.25,15.87V8.19A1.86,1.86,0,0,1,6.33,6.07h7.5a1.86,1.86,0,0,1,2.09,2.12v7.44a1.86,1.86,0,0,1-2.09,2.11H6.33C4.94,17.74,4.25,17.05,4.25,15.87Z"/></svg>