<svg width="24" height="24" viewBox="0 0 24 24" fill="none" xmlns="http://www.w3.org/2000/svg">
<path d="M15.0464 5.10059H8.7793C8.8291 4.46973 9.17773 4.1543 9.8667 4.1543H13.9673C14.6479 4.1543 15.0049 4.46973 15.0464 5.10059Z" fill="#666666"/>
<path d="M16.1836 6.98486H7.58398C7.7002 6.3042 8.01562 5.94727 8.7627 5.94727H15.0049C15.752 5.94727 16.0674 6.3042 16.1836 6.98486Z" fill="#666666"/>
<path d="M15.9595 19.6602H8.28125C6.87012 19.6602 6.16455 18.9712 6.16455 17.5767V10.0728C6.16455 8.67822 6.87012 7.98926 8.28125 7.98926H15.7188C17.1299 7.98926 17.8354 8.68652 17.8354 10.0728V17.5767C17.8354 18.9712 17.1382 19.6602 15.9595 19.6602Z" fill="#666666"/>
</svg>
