<svg width="24" height="24" viewBox="0 0 24 24" fill="none" xmlns="http://www.w3.org/2000/svg">
<path d="M7.32812 11.5283H10.1919C11.0801 11.5283 11.52 11.0801 11.52 10.167V7.36133C11.52 6.44824 11.0801 6 10.1919 6H7.32812C6.43994 6 6 6.44824 6 7.36133V10.167C6 11.0801 6.43994 11.5283 7.32812 11.5283ZM7.32812 18.1025H10.1919C11.0801 18.1025 11.52 17.6543 11.52 16.7412V13.9355C11.52 13.0225 11.0801 12.5825 10.1919 12.5825H7.32812C6.43994 12.5825 6 13.0225 6 13.9355V16.7412C6 17.6543 6.43994 18.1025 7.32812 18.1025ZM13.9023 18.1025H16.7661C17.6543 18.1025 18.0942 17.6543 18.0942 16.7412V13.9355C18.0942 13.0225 17.6543 12.5825 16.7661 12.5825H13.9023C13.0142 12.5825 12.5742 13.0225 12.5742 13.9355V16.7412C12.5742 17.6543 13.0142 18.1025 13.9023 18.1025Z" fill="#666666"/>
<path d="M16.7661 11.5283H13.9023C13.0142 11.5283 12.5742 11.0801 12.5742 10.167V7.36133C12.5742 6.44824 13.0142 6 13.9023 6H16.7661C17.6543 6 18.0942 6.44824 18.0942 7.36133V10.167C18.0942 11.0801 17.6543 11.5283 16.7661 11.5283Z" fill="#666666"/>
</svg>
