<svg id="Layer_1" data-name="Layer 1" xmlns="http://www.w3.org/2000/svg" viewBox="0 0 24 24"><defs><style>.cls-1{fill:#666;}</style></defs><path class="cls-1" d="M11,19.66H13c.94,0,1.42-.59,1.42-1.72V5.86c0-1.13-.48-1.71-1.42-1.71H11c-.93,0-1.41.58-1.41,1.71V17.94C9.62,19.07,10.1,19.66,11,19.66Zm5.9,0h1.92c.94,0,1.42-.46,1.42-1.34V9.48c0-.88-.48-1.33-1.42-1.33H16.93c-.93,0-1.42.45-1.42,1.33v8.84C15.51,19.2,16,19.66,16.93,19.66Zm-11.79,0H7.07c.94,0,1.42-.46,1.42-1.34v-5.6c0-.88-.48-1.33-1.42-1.33H5.14c-.93,0-1.41.45-1.41,1.33v5.6C3.73,19.2,4.21,19.66,5.14,19.66Z"/></svg>