<svg width="24" height="24" viewBox="0 0 24 24" fill="none" xmlns="http://www.w3.org/2000/svg">
<path d="M6.22266 8.90234C6.6875 8.90234 7.06934 8.52051 7.06934 8.05566C7.06934 7.59082 6.6875 7.20898 6.22266 7.20898C5.75781 7.20898 5.37598 7.59082 5.37598 8.05566C5.37598 8.52051 5.75781 8.90234 6.22266 8.90234ZM9.16113 8.65332H18.0181C18.3501 8.65332 18.6157 8.3877 18.6157 8.05566C18.6157 7.72363 18.3501 7.45801 18.0181 7.45801H9.16113C8.8291 7.45801 8.56348 7.72363 8.56348 8.05566C8.56348 8.3877 8.8291 8.65332 9.16113 8.65332ZM6.22266 12.8618C6.6875 12.8618 7.06934 12.48 7.06934 12.0151C7.06934 11.5503 6.6875 11.1685 6.22266 11.1685C5.75781 11.1685 5.37598 11.5503 5.37598 12.0151C5.37598 12.48 5.75781 12.8618 6.22266 12.8618ZM9.16113 12.6128H18.0181C18.3501 12.6128 18.6157 12.3472 18.6157 12.0151C18.6157 11.6831 18.3501 11.4175 18.0181 11.4175H9.16113C8.8291 11.4175 8.56348 11.6831 8.56348 12.0151C8.56348 12.3472 8.8291 12.6128 9.16113 12.6128ZM6.22266 16.8213C6.6875 16.8213 7.06934 16.4395 7.06934 15.9746C7.06934 15.5098 6.6875 15.1279 6.22266 15.1279C5.75781 15.1279 5.37598 15.5098 5.37598 15.9746C5.37598 16.4395 5.75781 16.8213 6.22266 16.8213ZM9.16113 16.5723H18.0181C18.3501 16.5723 18.6157 16.3066 18.6157 15.9746C18.6157 15.6426 18.3501 15.377 18.0181 15.377H9.16113C8.8291 15.377 8.56348 15.6426 8.56348 15.9746C8.56348 16.3066 8.8291 16.5723 9.16113 16.5723Z" fill="#666666"/>
</svg>
