<svg width="24" height="24" viewBox="0 0 24 24" fill="none" xmlns="http://www.w3.org/2000/svg">
<path d="M6.21992 8.89989C6.38887 8.90187 6.55458 8.85345 6.69588 8.76082C6.83718 8.66818 6.94768 8.53554 7.01325 8.37982C7.07882 8.2241 7.09649 8.05237 7.06401 7.88656C7.03154 7.72075 6.95038 7.56838 6.8309 7.44891C6.71143 7.32944 6.55906 7.24828 6.39325 7.2158C6.22744 7.18332 6.05572 7.201 5.9 7.26657C5.74428 7.33214 5.61163 7.44263 5.519 7.58393C5.42637 7.72524 5.37795 7.89094 5.37992 8.05989C5.38252 8.28187 5.47185 8.49402 5.62882 8.65099C5.78579 8.80796 5.99795 8.8973 6.21992 8.89989V8.89989ZM9.15992 8.64989H17.9999C18.0845 8.66088 18.1705 8.65371 18.2521 8.62883C18.3337 8.60396 18.4091 8.56197 18.4732 8.50566C18.5373 8.44935 18.5887 8.38001 18.6238 8.30228C18.659 8.22455 18.6772 8.14021 18.6772 8.05489C18.6772 7.96957 18.659 7.88523 18.6238 7.8075C18.5887 7.72977 18.5373 7.66044 18.4732 7.60413C18.4091 7.54782 18.3337 7.50582 18.2521 7.48095C18.1705 7.45608 18.0845 7.4489 17.9999 7.45989H9.15992C9.07531 7.4489 8.98933 7.45608 8.90772 7.48095C8.8261 7.50582 8.75073 7.54782 8.68663 7.60413C8.62253 7.66044 8.57118 7.72977 8.536 7.8075C8.50082 7.88523 8.48262 7.96957 8.48262 8.05489C8.48262 8.14021 8.50082 8.22455 8.536 8.30228C8.57118 8.38001 8.62253 8.44935 8.68663 8.50566C8.75073 8.56197 8.8261 8.60396 8.90772 8.62883C8.98933 8.65371 9.07531 8.66088 9.15992 8.64989V8.64989ZM6.21992 12.8599C6.38802 12.8619 6.55293 12.8139 6.69379 12.7222C6.83465 12.6304 6.94514 12.499 7.01129 12.3444C7.07744 12.1899 7.09628 12.0192 7.06542 11.8539C7.03456 11.6887 6.9554 11.5363 6.83793 11.416C6.72047 11.2958 6.56998 11.213 6.4055 11.1783C6.24102 11.1436 6.06993 11.1584 5.91387 11.2209C5.75781 11.2834 5.62378 11.3907 5.52874 11.5294C5.4337 11.6681 5.38191 11.8318 5.37992 11.9999C5.3786 12.1115 5.39928 12.2223 5.44078 12.3259C5.48228 12.4296 5.54379 12.524 5.62179 12.6039C5.6998 12.6837 5.79277 12.7475 5.89539 12.7914C5.99802 12.8353 6.1083 12.8586 6.21992 12.8599V12.8599ZM9.15992 12.6099H17.9999C18.0845 12.6209 18.1705 12.6137 18.2521 12.5888C18.3337 12.564 18.4091 12.522 18.4732 12.4657C18.5373 12.4093 18.5887 12.34 18.6238 12.2623C18.659 12.1846 18.6772 12.1002 18.6772 12.0149C18.6772 11.9296 18.659 11.8452 18.6238 11.7675C18.5887 11.6898 18.5373 11.6204 18.4732 11.5641C18.4091 11.5078 18.3337 11.4658 18.2521 11.441C18.1705 11.4161 18.0845 11.4089 17.9999 11.4199H9.15992C9.07531 11.4089 8.98933 11.4161 8.90772 11.441C8.8261 11.4658 8.75073 11.5078 8.68663 11.5641C8.62253 11.6204 8.57118 11.6898 8.536 11.7675C8.50082 11.8452 8.48262 11.9296 8.48262 12.0149C8.48262 12.1002 8.50082 12.1846 8.536 12.2623C8.57118 12.34 8.62253 12.4093 8.68663 12.4657C8.75073 12.522 8.8261 12.564 8.90772 12.5888C8.98933 12.6137 9.07531 12.6209 9.15992 12.6099V12.6099ZM6.21992 16.8199C6.3897 16.8218 6.55616 16.7728 6.69784 16.6792C6.83952 16.5856 6.94993 16.4518 7.01484 16.2949C7.07975 16.138 7.09617 15.9652 7.06201 15.7989C7.02784 15.6326 6.94465 15.4803 6.82315 15.3617C6.70165 15.2431 6.54741 15.1636 6.38032 15.1335C6.21322 15.1033 6.04093 15.1239 5.88564 15.1926C5.73035 15.2612 5.59919 15.3748 5.50905 15.5187C5.41892 15.6626 5.37394 15.8302 5.37992 15.9999C5.38762 16.2184 5.47921 16.4255 5.63564 16.5782C5.79207 16.7309 6.00132 16.8175 6.21992 16.8199ZM9.15992 16.5699H17.9999C18.0845 16.5809 18.1705 16.5737 18.2521 16.5488C18.3337 16.524 18.4091 16.482 18.4732 16.4257C18.5373 16.3693 18.5887 16.3 18.6238 16.2223C18.659 16.1446 18.6772 16.0602 18.6772 15.9749C18.6772 15.8896 18.659 15.8052 18.6238 15.7275C18.5887 15.6498 18.5373 15.5804 18.4732 15.5241C18.4091 15.4678 18.3337 15.4258 18.2521 15.401C18.1705 15.3761 18.0845 15.3689 17.9999 15.3799H9.15992C9.07531 15.3689 8.98933 15.3761 8.90772 15.401C8.8261 15.4258 8.75073 15.4678 8.68663 15.5241C8.62253 15.5804 8.57118 15.6498 8.536 15.7275C8.50082 15.8052 8.48262 15.8896 8.48262 15.9749C8.48262 16.0602 8.50082 16.1446 8.536 16.2223C8.57118 16.3 8.62253 16.3693 8.68663 16.4257C8.75073 16.482 8.8261 16.524 8.90772 16.5488C8.98933 16.5737 9.07531 16.5809 9.15992 16.5699V16.5699Z" fill="#666666"/>
</svg>
