<svg width="24" height="24" viewBox="0 0 24 24" fill="none" xmlns="http://www.w3.org/2000/svg">
<path d="M15.3867 11.9321C16.7812 11.9321 18.0098 10.6787 18.0098 9.04346C18.0098 7.4165 16.7812 6.23779 15.3867 6.23779C14.0005 6.23779 12.772 7.44971 12.772 9.06006C12.772 10.6787 14.0005 11.9321 15.3867 11.9321ZM7.89941 12.0815C9.11133 12.0815 10.1821 10.9858 10.1821 9.56641C10.1821 8.14697 9.11133 7.12598 7.89941 7.12598C6.6958 7.12598 5.6167 8.17188 5.6167 9.58301C5.6167 10.9858 6.6958 12.0815 7.89941 12.0815ZM4.33008 17.9917H9.08643C8.42236 16.8877 9.32715 14.9121 10.7134 13.8662C9.99121 13.4097 9.07812 13.0776 7.89941 13.0776C4.96094 13.0776 3.11816 15.269 3.11816 17.0537C3.11816 17.6431 3.44189 17.9917 4.33008 17.9917ZM11.3774 17.9917H19.4043C20.5166 17.9917 20.8818 17.6763 20.8818 17.1035C20.8818 15.4185 18.7734 13.0942 15.3867 13.0942C12.0083 13.0942 9.8999 15.4185 9.8999 17.1035C9.8999 17.6763 10.2651 17.9917 11.3774 17.9917Z" fill="#666666"/>
</svg>
