<svg width="24" height="24" viewBox="0 0 24 24" fill="none" xmlns="http://www.w3.org/2000/svg">
<path d="M16.46 6.38999H7.54003C7.26964 6.35782 6.99548 6.38743 6.73819 6.47657C6.4809 6.5657 6.24718 6.71205 6.05464 6.90459C5.8621 7.09714 5.71575 7.33085 5.62661 7.58814C5.53747 7.84543 5.50787 8.1196 5.54003 8.38999V16.39C5.50625 16.6651 5.53646 16.9443 5.62833 17.2059C5.72019 17.4674 5.87121 17.7042 6.06963 17.8978C6.26804 18.0913 6.50849 18.2365 6.77221 18.3219C7.03593 18.4072 7.31581 18.4306 7.59003 18.39H16.51C16.7842 18.4306 17.0641 18.4072 17.3279 18.3219C17.5916 18.2365 17.832 18.0913 18.0304 17.8978C18.2288 17.7042 18.3799 17.4674 18.4717 17.2059C18.5636 16.9443 18.5938 16.6651 18.56 16.39V8.38999C18.5957 8.10998 18.5651 7.8255 18.4706 7.55952C18.376 7.29355 18.2203 7.05353 18.0159 6.85886C17.8115 6.66418 17.5641 6.52031 17.2939 6.43887C17.0236 6.35742 16.738 6.34067 16.46 6.38999V6.38999ZM17.46 16.44C17.4761 16.5637 17.4638 16.6895 17.4239 16.8078C17.384 16.9261 17.3176 17.0336 17.2299 17.1224C17.1421 17.2111 17.0352 17.2786 16.9174 17.3198C16.7996 17.361 16.674 17.3747 16.55 17.36H7.44003C7.31646 17.3751 7.19107 17.3615 7.07359 17.3203C6.95612 17.2791 6.84972 17.2114 6.76267 17.1224C6.67561 17.0334 6.61024 16.9256 6.57163 16.8072C6.53302 16.6889 6.5222 16.5632 6.54003 16.44V10.29C6.52423 10.1672 6.53646 10.0423 6.5758 9.92491C6.61514 9.80749 6.68057 9.70049 6.76717 9.61197C6.85377 9.52344 6.9593 9.45568 7.07583 9.41377C7.19237 9.37186 7.31688 9.35689 7.44003 9.36999H16.55C16.6735 9.35721 16.7984 9.37231 16.9153 9.41418C17.0322 9.45605 17.1382 9.52361 17.2255 9.6119C17.3128 9.70018 17.3792 9.80694 17.4198 9.92429C17.4604 10.0416 17.4742 10.1666 17.46 10.29V16.44Z" fill="#666666"/>
<path d="M14.0801 16.0001H15.0001C15.5601 16.0001 15.7501 15.8301 15.7501 15.2701V14.3301C15.7501 13.7701 15.5601 13.6101 15.0001 13.6101H14.0801C13.5001 13.6101 13.3301 13.7701 13.3301 14.3301V15.2701C13.3301 15.8201 13.5001 16.0001 14.0801 16.0001Z" fill="#666666"/>
<path d="M15.43 4.62988H15.02C14.8432 4.62988 14.7 4.77315 14.7 4.94988V6.37988C14.7 6.55661 14.8432 6.69988 15.02 6.69988H15.43C15.6067 6.69988 15.75 6.55661 15.75 6.37988V4.94988C15.75 4.77315 15.6067 4.62988 15.43 4.62988Z" fill="#666666"/>
<path d="M8.56994 4.62988H8.99994C9.24994 4.62988 9.32994 4.69988 9.32994 4.93988V6.38988C9.32994 6.62988 9.24994 6.69988 8.99994 6.69988H8.59994C8.35994 6.69988 8.27994 6.62988 8.27994 6.38988V4.93988C8.24994 4.69988 8.32994 4.62988 8.56994 4.62988Z" fill="#666666"/>
</svg>
