<svg id="Layer_1" data-name="Layer 1" xmlns="http://www.w3.org/2000/svg" viewBox="0 0 24 24"><defs><style>.cls-1{fill:#666;}</style></defs><path class="cls-1" d="M16.46,6.39H7.54a1.8,1.8,0,0,0-2,2v8a1.8,1.8,0,0,0,2.05,2h8.92a1.8,1.8,0,0,0,2.05-2v-8A1.8,1.8,0,0,0,16.46,6.39Zm1,10.05a.82.82,0,0,1-.91.92H7.44a.81.81,0,0,1-.9-.92V10.29a.82.82,0,0,1,.9-.92h9.11a.83.83,0,0,1,.91.92Z"/><path class="cls-1" d="M14.08,16H15c.56,0,.75-.17.75-.73v-.94c0-.56-.19-.72-.75-.72h-.92c-.58,0-.75.16-.75.72v.94C13.33,15.82,13.5,16,14.08,16Z"/><rect class="cls-1" x="14.7" y="4.63" width="1.05" height="2.07" rx="0.32"/><path class="cls-1" d="M8.57,4.63H9c.25,0,.33.07.33.31V6.39c0,.24-.08.31-.33.31h-.4c-.24,0-.32-.07-.32-.31V4.94C8.25,4.7,8.33,4.63,8.57,4.63Z"/></svg>