<svg width="217" height="217" viewBox="0 0 217 217" fill="none" xmlns="http://www.w3.org/2000/svg">
<rect width="217" height="217" fill="white" fill-opacity="0.6"/>
<rect x="0.5" y="0.5" width="216" height="216" rx="5.5" stroke="#C8C7CC" stroke-dasharray="5 5"/>
<path d="M109 122.838C109.913 122.838 110.66 122.112 110.66 121.198V110.719H120.891C121.783 110.719 122.551 109.951 122.551 109.038C122.551 108.125 121.783 107.357 120.891 107.357H110.66V96.8564C110.66 95.9434 109.913 95.217 109 95.217C108.087 95.217 107.319 95.9434 107.319 96.8564V107.357H97.1091C96.196 107.357 95.4282 108.125 95.4282 109.038C95.4282 109.951 96.196 110.719 97.1091 110.719H107.319V121.198C107.319 122.112 108.087 122.838 109 122.838Z" fill="#8A8A8F"/>
</svg>
