<svg width="217" height="217" viewBox="0 0 217 217" fill="none" xmlns="http://www.w3.org/2000/svg">
<rect width="217" height="217" rx="6" fill="black"/>
<g clip-path="url(#clip0)">
<path fill-rule="evenodd" clip-rule="evenodd" d="M112.885 79.5075V92.2821V105.115L111.828 102.13L110.47 130.699C111.805 134.485 112.525 136.505 112.537 136.505L114.232 136.61C117.031 136.749 120.504 137.04 123.128 137.365C123.512 137.429 123.9 137.46 124.289 137.458C124.289 137.458 124.289 124.358 124.289 108.424V79.3914H112.909L112.885 79.5075Z" fill="#B1060F" stroke="black" stroke-width="0.23" stroke-miterlimit="10"/>
<path fill-rule="evenodd" clip-rule="evenodd" d="M92.3071 79.4733V108.506C92.3071 124.463 92.3071 137.539 92.3071 137.539C92.3071 137.539 93.3291 137.458 94.4904 137.319L98.137 136.959C99.3912 136.854 103.142 136.61 103.584 136.61C103.711 136.61 103.711 135.948 103.735 124.312V112.025L104.64 114.592C104.78 114.998 104.826 115.114 104.954 115.509L106.324 86.9406L105.848 85.6167C104.803 82.4695 103.862 79.7984 103.781 79.6823V79.4733H92.3071Z" fill="#B1060F" stroke="black" stroke-width="0.23" stroke-miterlimit="10"/>
<path fill-rule="evenodd" clip-rule="evenodd" d="M92.3071 79.4733V95.7318L103.781 126.182V124.312V112.025L104.687 114.592C109.739 128.888 112.444 136.552 112.468 136.576L114.163 136.68C116.962 136.819 120.434 137.11 123.059 137.435C123.443 137.499 123.831 137.53 124.22 137.528C124.22 137.528 124.22 131.106 124.22 122.059L112.874 89.2284V92.3407V105.173L111.817 102.189C110.795 99.2855 110.099 97.3344 105.953 85.6167C104.803 82.4695 103.862 79.7984 103.781 79.6823V79.4733H92.3071Z" fill="url(#paint0_radial)"/>
<path fill-rule="evenodd" clip-rule="evenodd" d="M92.3071 79.4733L103.781 112.048L104.687 114.615C109.739 128.911 112.444 136.576 112.468 136.599L114.163 136.703C116.962 136.843 120.434 137.133 123.059 137.458C123.443 137.523 123.831 137.554 124.22 137.551L112.839 105.162L111.783 102.177C110.761 99.2738 110.064 97.3228 105.918 85.6051C104.803 82.4695 103.862 79.7984 103.781 79.6823V79.4733H92.3071Z" fill="#E50914"/>
<path fill-rule="evenodd" clip-rule="evenodd" d="M112.885 79.5075V92.2821V105.115L111.828 102.13L110.47 130.699C111.805 134.485 112.525 136.505 112.537 136.505L114.232 136.61C117.031 136.749 120.504 137.04 123.128 137.365C123.512 137.429 123.9 137.46 124.289 137.458C124.289 137.458 124.289 124.358 124.289 108.424V79.3914H112.909L112.885 79.5075Z" fill="#B1060F" stroke="black" stroke-width="0.23" stroke-miterlimit="10"/>
<path fill-rule="evenodd" clip-rule="evenodd" d="M92.3071 79.4733V108.506C92.3071 124.463 92.3071 137.539 92.3071 137.539C92.3071 137.539 93.3291 137.458 94.4904 137.319L98.137 136.959C99.3912 136.854 103.142 136.61 103.584 136.61C103.711 136.61 103.711 135.948 103.735 124.312V112.025L104.64 114.592C104.78 114.998 104.826 115.114 104.954 115.509L106.324 86.9406L105.848 85.6167C104.803 82.4695 103.862 79.7984 103.781 79.6823V79.4733H92.3071Z" fill="#B1060F" stroke="black" stroke-width="0.23" stroke-miterlimit="10"/>
<path fill-rule="evenodd" clip-rule="evenodd" d="M92.3071 79.4733V95.7318L103.781 126.182V124.312V112.025L104.687 114.592C109.739 128.888 112.444 136.552 112.468 136.576L114.163 136.68C116.962 136.819 120.434 137.11 123.059 137.435C123.443 137.499 123.831 137.53 124.22 137.528C124.22 137.528 124.22 131.106 124.22 122.059L112.874 89.2284V92.3407V105.173L111.817 102.189C110.795 99.2855 110.099 97.3344 105.953 85.6167C104.803 82.4695 103.862 79.7984 103.781 79.6823V79.4733H92.3071Z" fill="url(#paint1_radial)"/>
<path fill-rule="evenodd" clip-rule="evenodd" d="M92.3071 79.4733L103.781 112.048L104.687 114.615C109.739 128.911 112.444 136.576 112.468 136.599L114.163 136.703C116.962 136.843 120.434 137.133 123.059 137.458C123.443 137.523 123.831 137.554 124.22 137.551L112.839 105.162L111.783 102.177C110.761 99.2738 110.064 97.3228 105.918 85.6051C104.803 82.4695 103.862 79.7984 103.781 79.6823V79.4733H92.3071Z" fill="#E50914"/>
</g>
<defs>
<radialGradient id="paint0_radial" cx="0" cy="0" r="1" gradientUnits="userSpaceOnUse" gradientTransform="translate(135.699 133.932) rotate(-18.435) scale(7.29124 265.644)">
<stop/>
<stop offset="1" stop-opacity="0"/>
</radialGradient>
<radialGradient id="paint1_radial" cx="0" cy="0" r="1" gradientUnits="userSpaceOnUse" gradientTransform="translate(135.699 133.932) rotate(-18.435) scale(7.29124 265.644)">
<stop/>
<stop offset="1" stop-opacity="0"/>
</radialGradient>
<clipPath id="clip0">
<rect width="32.2616" height="58.3333" fill="white" transform="translate(92.167 79.3333)"/>
</clipPath>
</defs>
</svg>
