<svg width="186" height="186" viewBox="0 0 186 186" fill="none" xmlns="http://www.w3.org/2000/svg">
<rect width="186" height="186" rx="4" fill="black"/>
<g clip-path="url(#clip0)">
<path fill-rule="evenodd" clip-rule="evenodd" d="M96.7585 68.1493V79.099V90.0984L95.8526 87.5401L94.688 112.028C95.8327 115.273 96.4499 117.005 96.4598 117.005L97.9132 117.094C100.312 117.214 103.288 117.463 105.538 117.741C105.867 117.796 106.2 117.823 106.533 117.821C106.533 117.821 106.533 106.593 106.533 92.9353V68.0498H96.7784L96.7585 68.1493Z" fill="#B1060F" stroke="black" stroke-width="0.23" stroke-miterlimit="10"/>
<path fill-rule="evenodd" clip-rule="evenodd" d="M79.1201 68.12V93.0055C79.1201 106.683 79.1201 117.891 79.1201 117.891C79.1201 117.891 79.9961 117.821 80.9915 117.702L84.1171 117.393C85.1922 117.304 88.4074 117.095 88.7857 117.095C88.8952 117.095 88.8952 116.527 88.9151 106.553V96.0216L89.6915 98.2215C89.8109 98.5699 89.8508 98.6695 89.9603 99.0079L91.1348 74.5206L90.7267 73.3858C89.8308 70.6882 89.0246 68.3987 88.9549 68.2992V68.12H79.1201Z" fill="#B1060F" stroke="black" stroke-width="0.23" stroke-miterlimit="10"/>
<path fill-rule="evenodd" clip-rule="evenodd" d="M79.1201 68.12V82.0559L88.9549 108.156V106.553V96.0216L89.7313 98.2215C94.0614 110.475 96.3807 117.045 96.4006 117.065L97.8539 117.154C100.253 117.274 103.229 117.523 105.479 117.801C105.808 117.856 106.141 117.883 106.474 117.881C106.474 117.881 106.474 112.376 106.474 104.622L96.749 76.4815V79.1493V90.1487L95.8432 87.5904C94.9672 85.1019 94.37 83.4296 90.8163 73.3858C89.8308 70.6882 89.0246 68.3987 88.9549 68.2992V68.12H79.1201Z" fill="url(#paint0_radial)"/>
<path fill-rule="evenodd" clip-rule="evenodd" d="M79.1201 68.12L88.9549 96.0416L89.7313 98.2414C94.0614 110.495 96.3807 117.065 96.4006 117.085L97.8539 117.174C100.253 117.294 103.229 117.543 105.479 117.821C105.808 117.877 106.141 117.903 106.474 117.901L96.7192 90.1387L95.8133 87.5805C94.9374 85.0919 94.3401 83.4196 90.7865 73.3758C89.8308 70.6882 89.0246 68.3987 88.9549 68.2992V68.12H79.1201Z" fill="#E50914"/>
<path fill-rule="evenodd" clip-rule="evenodd" d="M96.7585 68.1493V79.099V90.0984L95.8526 87.5401L94.688 112.028C95.8327 115.273 96.4499 117.005 96.4598 117.005L97.9132 117.094C100.312 117.214 103.288 117.463 105.538 117.741C105.867 117.796 106.2 117.823 106.533 117.821C106.533 117.821 106.533 106.593 106.533 92.9353V68.0498H96.7784L96.7585 68.1493Z" fill="#B1060F" stroke="black" stroke-width="0.23" stroke-miterlimit="10"/>
<path fill-rule="evenodd" clip-rule="evenodd" d="M79.1201 68.12V93.0055C79.1201 106.683 79.1201 117.891 79.1201 117.891C79.1201 117.891 79.9961 117.821 80.9915 117.702L84.1171 117.393C85.1922 117.304 88.4074 117.095 88.7857 117.095C88.8952 117.095 88.8952 116.527 88.9151 106.553V96.0216L89.6915 98.2215C89.8109 98.5699 89.8508 98.6695 89.9603 99.0079L91.1348 74.5206L90.7267 73.3858C89.8308 70.6882 89.0246 68.3987 88.9549 68.2992V68.12H79.1201Z" fill="#B1060F" stroke="black" stroke-width="0.23" stroke-miterlimit="10"/>
<path fill-rule="evenodd" clip-rule="evenodd" d="M79.1201 68.12V82.0559L88.9549 108.156V106.553V96.0216L89.7313 98.2215C94.0614 110.475 96.3807 117.045 96.4006 117.065L97.8539 117.154C100.253 117.274 103.229 117.523 105.479 117.801C105.808 117.856 106.141 117.883 106.474 117.881C106.474 117.881 106.474 112.376 106.474 104.622L96.749 76.4815V79.1493V90.1487L95.8432 87.5904C94.9672 85.1019 94.37 83.4296 90.8163 73.3858C89.8308 70.6882 89.0246 68.3987 88.9549 68.2992V68.12H79.1201Z" fill="url(#paint1_radial)"/>
<path fill-rule="evenodd" clip-rule="evenodd" d="M79.1201 68.12L88.9549 96.0416L89.7313 98.2414C94.0614 110.495 96.3807 117.065 96.4006 117.085L97.8539 117.174C100.253 117.294 103.229 117.543 105.479 117.821C105.808 117.877 106.141 117.903 106.474 117.901L96.7192 90.1387L95.8133 87.5805C94.9374 85.0919 94.3401 83.4196 90.7865 73.3758C89.8308 70.6882 89.0246 68.3987 88.9549 68.2992V68.12H79.1201Z" fill="#E50914"/>
</g>
<defs>
<radialGradient id="paint0_radial" cx="0" cy="0" r="1" gradientUnits="userSpaceOnUse" gradientTransform="translate(116.313 114.799) rotate(-18.4349) scale(6.24964 227.695)">
<stop/>
<stop offset="1" stop-opacity="0"/>
</radialGradient>
<radialGradient id="paint1_radial" cx="0" cy="0" r="1" gradientUnits="userSpaceOnUse" gradientTransform="translate(116.313 114.799) rotate(-18.4349) scale(6.24964 227.695)">
<stop/>
<stop offset="1" stop-opacity="0"/>
</radialGradient>
<clipPath id="clip0">
<rect width="27.6528" height="50" fill="white" transform="translate(79 68)"/>
</clipPath>
</defs>
</svg>
