<svg width="186" height="186" viewBox="0 0 186 186" fill="none" xmlns="http://www.w3.org/2000/svg">
<rect width="186" height="186" rx="6" fill="black"/>
<g clip-path="url(#clip0)">
<path d="M93 68C88.0555 68 83.222 69.4662 79.1108 72.2133C74.9995 74.9603 71.7952 78.8648 69.903 83.4329C68.0108 88.0011 67.5157 93.0277 68.4804 97.8773C69.445 102.727 71.826 107.181 75.3223 110.678C78.8187 114.174 83.2732 116.555 88.1228 117.52C92.9723 118.484 97.9989 117.989 102.567 116.097C107.135 114.205 111.04 111 113.787 106.889C116.534 102.778 118 97.9445 118 93C118 86.3696 115.366 80.0107 110.678 75.3223C105.989 70.6339 99.6304 68 93 68V68ZM104.46 104.06C104.354 104.235 104.214 104.386 104.048 104.507C103.883 104.627 103.695 104.713 103.496 104.76C103.297 104.808 103.091 104.815 102.889 104.783C102.687 104.75 102.494 104.678 102.32 104.57C96.45 100.99 89.06 100.18 80.32 102.16C80.1106 102.246 79.885 102.285 79.6589 102.275C79.4327 102.266 79.2115 102.206 79.0104 102.102C78.8094 101.998 78.6334 101.852 78.4947 101.673C78.3559 101.494 78.2578 101.287 78.2071 101.067C78.1563 100.846 78.1542 100.617 78.2008 100.396C78.2475 100.174 78.3418 99.9653 78.4772 99.7839C78.6125 99.6025 78.7858 99.4527 78.9849 99.345C79.184 99.2372 79.4041 99.1741 79.63 99.16C89.19 97 97.36 97.89 104 101.91C104.345 102.135 104.587 102.487 104.673 102.89C104.759 103.293 104.683 103.713 104.46 104.06ZM107.52 97.25C107.387 97.4688 107.212 97.6591 107.005 97.8099C106.797 97.9607 106.563 98.0689 106.313 98.1284C106.064 98.1879 105.806 98.1975 105.553 98.1566C105.3 98.1157 105.058 98.025 104.84 97.89C98.12 93.76 87.84 92.57 79.93 94.98C79.6821 95.0651 79.4197 95.0993 79.1583 95.0807C78.8969 95.062 78.6419 94.9909 78.4086 94.8715C78.1754 94.7521 77.9685 94.5869 77.8005 94.3858C77.6325 94.1847 77.5067 93.9518 77.4308 93.701C77.3548 93.4502 77.3301 93.1866 77.3583 92.9261C77.3864 92.6655 77.4668 92.4134 77.5946 92.1846C77.7224 91.9558 77.8951 91.7551 78.1022 91.5945C78.3093 91.434 78.5466 91.3168 78.8 91.25C87.88 88.49 99.17 89.83 106.88 94.57C107.099 94.7032 107.289 94.8784 107.44 95.0855C107.591 95.2926 107.699 95.5275 107.758 95.7766C107.818 96.0258 107.828 96.2843 107.787 96.5372C107.746 96.79 107.655 97.0323 107.52 97.25ZM111 89.32C110.844 89.5845 110.638 89.8157 110.393 90.0002C110.147 90.1847 109.868 90.3189 109.57 90.3951C109.273 90.4713 108.964 90.488 108.66 90.4442C108.356 90.4004 108.064 90.297 107.8 90.14C99.74 85.35 86.45 84.91 78.8 87.24C78.5065 87.3286 78.1984 87.3586 77.8933 87.3282C77.5882 87.2978 77.2921 87.2075 77.0219 87.0627C76.7517 86.9178 76.5127 86.7212 76.3185 86.4839C76.1242 86.2467 75.9787 85.9735 75.89 85.68C75.8014 85.3865 75.7714 85.0784 75.8018 84.7733C75.8323 84.4682 75.9225 84.1721 76.0673 83.9019C76.2122 83.6317 76.4089 83.3927 76.6461 83.1984C76.8833 83.0042 77.1565 82.8586 77.45 82.77C86.28 80.09 100.96 80.61 110.23 86.11C110.757 86.4346 111.133 86.9545 111.278 87.5561C111.422 88.1576 111.322 88.7918 111 89.32Z" fill="#1ED760"/>
</g>
<defs>
<clipPath id="clip0">
<rect width="50" height="50" fill="white" transform="translate(68 68)"/>
</clipPath>
</defs>
</svg>
