<svg width="50" height="32" viewBox="0 0 50 32" fill="none" xmlns="http://www.w3.org/2000/svg">
<g id="UnionPay" clip-path="url(#clip0)">
<g id="UnionPay_2">
<rect id="Rectangle" width="50" height="32" rx="3" fill="#242424"/>
<g id="Group">
<path id="Vector" d="M15.2615 5H23.2418C24.3558 5 25.0487 5.98366 24.7888 7.19448L21.0734 24.4756C20.8112 25.6822 19.6958 26.6667 18.5811 26.6667H10.6015C9.48906 26.6667 8.79464 25.6822 9.05451 24.4756L12.7715 7.19448C13.0314 5.98366 14.1461 5 15.2615 5Z" fill="#E21836"/>
<path id="Vector_2" d="M22.5779 5H31.7551C32.8689 5 32.3666 5.98366 32.1046 7.19448L28.3898 24.4756C28.1291 25.6822 28.2104 26.6667 27.0943 26.6667H17.9171C16.801 26.6667 16.1103 25.6822 16.3725 24.4756L20.0871 7.19448C20.3509 5.98366 21.4633 5 22.5779 5Z" fill="#00447C"/>
<path id="Vector_3" d="M31.391 5H39.3713C40.4869 5 41.1797 5.98366 40.9177 7.19448L37.2029 24.4756C36.9407 25.6822 35.8245 26.6667 34.7092 26.6667H26.7325C25.6164 26.6667 24.9241 25.6822 25.1856 24.4756L28.901 7.19448C29.1609 5.98366 30.2748 5 31.391 5Z" fill="#007B84"/>
<path id="Vector_4" d="M17.3456 10.5383C16.525 10.5474 16.2826 10.5383 16.2052 10.5185C16.1754 10.6717 15.6217 13.4392 15.6201 13.4415C15.5009 14.0014 15.4141 14.4005 15.1194 14.6582C14.9521 14.808 14.7568 14.8803 14.5304 14.8803C14.1665 14.8803 13.9545 14.6845 13.9189 14.3132L13.9121 14.1858C13.9121 14.1858 14.0229 13.4358 14.0229 13.4316C14.0229 13.4316 14.6042 10.9096 14.7082 10.5763C14.7137 10.5573 14.7152 10.5474 14.7166 10.5383C13.5853 10.5491 13.3847 10.5383 13.3709 10.5185C13.3633 10.5457 13.3353 10.7021 13.3353 10.7021L12.7419 13.5445L12.6909 13.7856L12.5923 14.5741C12.5923 14.808 12.6347 14.9989 12.7191 15.1604C12.9895 15.6722 13.7607 15.7489 14.197 15.7489C14.7592 15.7489 15.2865 15.6195 15.6429 15.3833C16.2614 14.9873 16.4233 14.3684 16.5676 13.8185L16.6345 13.5363C16.6345 13.5363 17.2332 10.917 17.3349 10.5763C17.3388 10.5573 17.3404 10.5474 17.3456 10.5383ZM19.3827 12.6513C19.2384 12.6513 18.9746 12.6893 18.7377 12.8151C18.6517 12.8629 18.5704 12.9181 18.4847 12.9731L18.5621 12.6703L18.5197 12.6193C18.0172 12.7295 17.9048 12.7443 17.4407 12.8151L17.4018 12.8431C17.3479 13.3271 17.3001 13.6911 17.1003 14.6425C17.0242 14.9931 16.9453 15.3471 16.8661 15.6969L16.8875 15.7414C17.3631 15.7142 17.5074 15.7142 17.9208 15.7216L17.9542 15.6822C18.0067 15.3908 18.0135 15.3225 18.1299 14.7322C18.1845 14.4524 18.2985 13.8375 18.3547 13.6186C18.458 13.5667 18.5599 13.5157 18.6572 13.5157C18.8889 13.5157 18.8607 13.7347 18.8517 13.8219C18.8418 13.9684 18.7574 14.4467 18.6708 14.8574L18.613 15.1225C18.5728 15.3183 18.5286 15.5086 18.4884 15.7026L18.5059 15.7414C18.9746 15.7142 19.1176 15.7142 19.5179 15.7216L19.565 15.6822C19.6374 15.227 19.6586 15.1052 19.7869 14.4425L19.8515 14.138C19.977 13.5421 20.04 13.2399 19.9451 12.9938C19.8447 12.7179 19.6039 12.6513 19.3827 12.6513ZM21.6584 13.2753C21.4092 13.3271 21.2503 13.3617 21.0924 13.384C20.9358 13.4112 20.7831 13.4358 20.5423 13.4721L20.5232 13.4908L20.5057 13.5058C20.4806 13.7001 20.4631 13.868 20.4298 14.0655C20.4016 14.2697 20.3583 14.5017 20.2877 14.8351C20.233 15.0902 20.2048 15.1792 20.1737 15.2689C20.1433 15.3587 20.1099 15.4459 20.0484 15.6969L20.0628 15.7201L20.0749 15.7414C20.2999 15.7298 20.4472 15.7216 20.5985 15.7201C20.7496 15.7142 20.9062 15.7201 21.1486 15.7216L21.1698 15.7028L21.1925 15.6822C21.2275 15.4558 21.2328 15.395 21.2542 15.2845C21.2754 15.1661 21.312 15.0022 21.4016 14.5643C21.444 14.3586 21.4913 14.1536 21.5353 13.9437C21.581 13.7347 21.6288 13.5288 21.6744 13.3231L21.6675 13.2982L21.6584 13.2753ZM21.6637 12.434C21.4373 12.2893 21.0399 12.3352 20.7724 12.5352C20.5058 12.7311 20.4754 13.0093 20.7011 13.156C20.9236 13.2967 21.3225 13.2548 21.5877 13.0531C21.8538 12.8529 21.887 12.5773 21.6637 12.434ZM23.033 15.7867C23.4911 15.7867 23.9606 15.65 24.3141 15.2441C24.586 14.915 24.7107 14.4253 24.7539 14.2236C24.8945 13.5552 24.785 13.2431 24.6475 13.053C24.4386 12.7633 24.0694 12.6703 23.6864 12.6703C23.4561 12.6703 22.9075 12.695 22.479 13.123C22.1713 13.4317 22.0291 13.8506 21.9433 14.2523C21.8568 14.6615 21.7572 15.3982 22.3825 15.6723C22.5755 15.7621 22.8537 15.7867 23.033 15.7867ZM22.9972 14.2828C23.1028 13.7767 23.2275 13.3518 23.5457 13.3518C23.7951 13.3518 23.8132 13.6679 23.7023 14.1758C23.6825 14.2885 23.5914 14.7076 23.4683 14.8861C23.3823 15.0178 23.2806 15.0977 23.1682 15.0977C23.1347 15.0977 22.9357 15.0977 22.9326 14.7776C22.9311 14.6195 22.9608 14.4581 22.9972 14.2828ZM25.899 15.7217L25.9348 15.6823C25.9855 15.3908 25.9939 15.3223 26.1063 14.7323C26.1625 14.4525 26.2789 13.8376 26.3335 13.6186C26.437 13.5666 26.5372 13.5156 26.6375 13.5156C26.8677 13.5156 26.8396 13.7345 26.8305 13.8218C26.8221 13.9684 26.7377 14.4466 26.6496 14.8573L26.595 15.1224C26.5531 15.3183 26.5076 15.5084 26.4673 15.7027L26.4849 15.7415C26.9552 15.7143 27.0927 15.7143 27.4954 15.7217L27.544 15.6823C27.6146 15.2269 27.6337 15.1051 27.7659 14.4426L27.829 14.1379C27.955 13.5419 28.0188 13.24 27.9254 12.9938C27.8221 12.718 27.5798 12.6514 27.3617 12.6514C27.2172 12.6514 26.9521 12.6891 26.7165 12.8151C26.6323 12.863 26.5479 12.918 26.465 12.9732L26.5372 12.6704L26.4985 12.6192C25.9962 12.7296 25.8815 12.7443 25.4179 12.8151L25.3823 12.8432C25.3261 13.3272 25.2804 13.6909 25.0807 14.6425C25.0046 14.9932 24.9256 15.3472 24.8467 15.697L24.8679 15.7415C25.3442 15.7143 25.4864 15.7143 25.899 15.7217ZM29.3546 15.7414C29.3842 15.585 29.5598 14.6582 29.5614 14.6582C29.5614 14.6582 29.711 13.9782 29.7201 13.9536C29.7201 13.9536 29.7672 13.8828 29.8143 13.8547H29.8835C30.5369 13.8547 31.2747 13.8547 31.853 13.3939C32.2465 13.0778 32.5155 12.6111 32.6355 12.0438C32.6666 11.9047 32.6896 11.7393 32.6896 11.5739C32.6896 11.3566 32.6493 11.1417 32.533 10.9737C32.2381 10.5268 31.6509 10.5186 30.973 10.5152C30.9708 10.5152 30.6388 10.5186 30.6388 10.5186C29.7711 10.5301 29.4231 10.5268 29.2801 10.5078C29.2681 10.5763 29.2453 10.6981 29.2453 10.6981C29.2453 10.6981 28.9345 12.2587 28.9345 12.2612C28.9345 12.2612 28.1907 15.5793 28.1556 15.7357C28.9133 15.7258 29.2239 15.7258 29.3546 15.7414ZM29.9306 12.9691C29.9306 12.9691 30.2611 11.4116 30.2595 11.4175L30.2702 11.3376L30.2749 11.2767L30.407 11.2915C30.407 11.2915 31.0885 11.3549 31.1045 11.3566C31.3735 11.4693 31.4844 11.7599 31.407 12.1392C31.3363 12.4859 31.1288 12.7773 30.8621 12.9181C30.6425 13.0373 30.3735 13.0473 30.0963 13.0473H29.917L29.9306 12.9691ZM31.9882 14.3117C31.9009 14.715 31.8005 15.4517 32.4228 15.7142C32.6212 15.8057 32.799 15.8329 32.9797 15.823C33.1705 15.8118 33.3473 15.7081 33.5111 15.5589C33.4963 15.6203 33.4815 15.6816 33.4667 15.7431L33.4949 15.7825C33.9425 15.7621 34.0814 15.7621 34.5663 15.7661L34.6103 15.7298C34.6811 15.2789 34.7478 14.841 34.9318 13.9783C35.0215 13.5651 35.111 13.1558 35.203 12.7443L35.1886 12.699C34.6879 12.7995 34.5541 12.821 34.0725 12.895L34.0359 12.9272C34.031 12.9691 34.026 13.0094 34.0213 13.0496C33.9464 12.9186 33.8379 12.8067 33.6704 12.7369C33.4562 12.6457 32.9532 12.7633 32.5208 13.1898C32.217 13.4943 32.0711 13.9115 31.9882 14.3117ZM33.0398 14.3363C33.147 13.8392 33.2701 13.4186 33.5891 13.4186C33.7908 13.4186 33.897 13.6203 33.8754 13.9642C33.8583 14.0499 33.8398 14.1403 33.8178 14.2425C33.7859 14.3903 33.7513 14.5367 33.7177 14.6834C33.6834 14.7837 33.6436 14.8783 33.5998 14.9413C33.5177 15.0673 33.3224 15.1455 33.21 15.1455C33.1781 15.1455 32.9812 15.1455 32.9744 14.8311C32.9729 14.6745 33.0026 14.5133 33.0398 14.3363ZM38.531 12.695L38.4923 12.6471C37.9969 12.7559 37.9072 12.7731 37.4521 12.8397L37.4186 12.876C37.417 12.8819 37.4157 12.8909 37.4134 12.8992L37.4118 12.8909C37.073 13.7378 37.0829 13.5551 36.807 14.2219C36.8055 14.1915 36.8055 14.1726 36.8039 14.1403L36.7349 12.695L36.6915 12.6471C36.1725 12.7559 36.1603 12.7731 35.681 12.8397L35.6437 12.876C35.6384 12.8933 35.6384 12.9122 35.6353 12.9329L35.6384 12.9402C35.6983 13.2719 35.6839 13.198 35.744 13.7214C35.772 13.9783 35.8094 14.2366 35.8374 14.4903C35.8847 14.9149 35.9111 15.124 35.9689 15.772C35.6452 16.3506 35.5686 16.5695 35.257 17.0774L35.2591 17.0825L35.0397 17.4584C35.0146 17.498 34.9918 17.5252 34.9599 17.5368C34.9249 17.5555 34.8794 17.5589 34.8162 17.5589H34.6946L34.5139 18.21L35.1338 18.2216C35.4978 18.2199 35.7265 18.0356 35.8496 17.7877L36.2395 17.0641H36.2332L36.2743 17.0131C36.5365 16.4016 38.531 12.695 38.531 12.695ZM31.9882 21.2467H31.7252L32.6986 17.759H33.0215L33.124 17.3997L33.1339 17.7992C33.1219 18.0462 33.3012 18.2651 33.7723 18.2289H34.3171L34.5047 17.5573H34.2996C34.1818 17.5573 34.1271 17.5251 34.1339 17.456L34.124 17.0495H33.115V17.0516C32.7888 17.059 31.8147 17.0855 31.6175 17.1424C31.3788 17.209 31.1273 17.405 31.1273 17.405L31.2261 17.0453H30.2823L30.0857 17.759L29.0993 21.3H28.9079L28.7202 21.9667H30.6L30.5369 22.189H31.4632L31.5247 21.9667H31.7846L31.9882 21.2467ZM31.217 18.4676C31.0658 18.513 30.7846 18.6503 30.7846 18.6503L31.0347 17.759H31.7846L31.6037 18.4084C31.6037 18.4084 31.372 18.4232 31.217 18.4676ZM31.2314 19.7411C31.2314 19.7411 30.9958 19.7731 30.8408 19.811C30.6881 19.8612 30.4018 20.0192 30.4018 20.0192L30.6601 19.0916H31.4138L31.2314 19.7411ZM30.8112 21.2549H30.059L30.2771 20.4721H31.0269L30.8112 21.2549ZM32.6226 19.0916H33.7069L33.5511 19.6382H32.4524L32.2875 20.2358H33.2488L32.5209 21.3461C32.47 21.4277 32.4242 21.4566 32.3735 21.4795C32.3225 21.5076 32.2556 21.5404 32.1782 21.5404H31.9115L31.7283 22.1949H32.4258C32.7884 22.1949 33.0025 22.0162 33.1607 21.7817L33.6598 21.0416L33.767 21.7931C33.7897 21.9338 33.8831 22.0162 33.9463 22.0483C34.0162 22.0862 34.0883 22.1513 34.1902 22.161C34.2996 22.1661 34.3785 22.1701 34.4311 22.1701H34.7738L34.9796 21.4376H34.8444C34.7668 21.4376 34.6332 21.4235 34.6104 21.3971C34.5876 21.3651 34.5876 21.3158 34.5754 21.2408L34.4666 20.4876H34.0214L34.2167 20.2358H35.3132L35.4818 19.6382H34.4666L34.6248 19.0916H35.6369L35.8246 18.4175H32.8072L32.6226 19.0916ZM23.4652 21.4071L23.7183 20.4951H24.7584L24.9484 19.8168H23.9074L24.0663 19.2554H25.0836L25.2721 18.5986H22.7267L22.5421 19.2554H23.1204L22.9661 19.8168H22.3863L22.1941 20.5067H22.7722L22.4349 21.7133C22.3894 21.873 22.4563 21.9339 22.4987 22.0081C22.5421 22.0804 22.586 22.1282 22.6849 22.1554C22.7868 22.18 22.8566 22.1948 22.9515 22.1948H24.1241L24.333 21.4433L23.8132 21.5207C23.7129 21.5207 23.4349 21.5076 23.4652 21.4071ZM23.5845 17.0411L23.321 17.5572C23.2646 17.67 23.2138 17.7399 23.1681 17.7722C23.1278 17.7993 23.0481 17.8107 22.9325 17.8107H22.795L22.6112 18.4709H23.0679C23.2875 18.4709 23.4562 18.3837 23.5367 18.3401C23.6233 18.2899 23.646 18.3186 23.7129 18.2486L23.8672 18.1038H25.2934L25.4826 17.4164H24.4387L24.6209 17.0411H23.5845ZM25.69 21.4204C25.6657 21.3824 25.6832 21.3156 25.7204 21.1765L26.1102 19.7788H27.4969C27.699 19.7757 27.8449 19.7731 27.9398 19.7657C28.0417 19.7542 28.1526 19.7148 28.2734 19.644C28.3981 19.5698 28.4619 19.4916 28.5158 19.4018C28.5759 19.3123 28.6723 19.1163 28.7552 18.8141L29.2452 17.0453L27.8062 17.0544C27.8062 17.0544 27.3631 17.1252 27.168 17.2033C26.9711 17.2906 26.6899 17.5342 26.6899 17.5342L26.8198 17.0493H25.9309L24.6864 21.5207C24.6422 21.6943 24.6126 21.8203 24.6058 21.896C24.6035 21.9775 24.7007 22.0582 24.7638 22.1191C24.8383 22.18 24.9484 22.1701 25.054 22.18C25.1651 22.1891 25.323 22.1948 25.5411 22.1948H26.2242L26.4339 21.4277L25.8223 21.4903C25.757 21.4903 25.7097 21.4524 25.69 21.4204ZM26.3617 18.8348H27.8182L27.7256 19.1492C27.7126 19.1565 27.6815 19.1336 27.5333 19.1525H26.272L26.3617 18.8348ZM26.6535 17.7803H28.1223L28.0166 18.159C28.0166 18.159 27.3244 18.1516 27.2135 18.1737C26.7256 18.2652 26.4407 18.5476 26.4407 18.5476L26.6535 17.7803ZM27.7582 20.202C27.7462 20.249 27.7271 20.2777 27.7005 20.2992C27.6709 20.3198 27.6231 20.3272 27.5517 20.3272H27.3441L27.3564 19.9443H26.4931L26.4581 21.8162C26.4567 21.9512 26.4688 22.0294 26.56 22.092C26.6513 22.1702 26.9323 22.1801 27.3107 22.1801H27.8516L28.0469 21.4794L27.576 21.5074L27.4194 21.5174C27.398 21.5075 27.3776 21.4984 27.3548 21.4737C27.335 21.4525 27.3015 21.4655 27.307 21.3304L27.3107 20.8506L27.8045 20.8285C28.0712 20.8285 28.1852 20.7345 28.2825 20.645C28.3752 20.5592 28.4056 20.4606 28.4406 20.3272L28.5235 19.9024H27.8448L27.7582 20.202Z" fill="#FEFEFE"/>
</g>
</g>
</g>
<defs>
<clipPath id="clip0">
<rect width="50" height="32" fill="white"/>
</clipPath>
</defs>
</svg>
