<svg width="186" height="186" viewBox="0 0 186 186" fill="none" xmlns="http://www.w3.org/2000/svg">
<rect x="0.5" y="0.5" width="185" height="185" rx="5.5" fill="white" stroke="#C8C7CC"/>
<g clip-path="url(#clip0)">
<path d="M93 76C93 76 77.36 76 73.44 77C72.3808 77.3058 71.4171 77.8769 70.6402 78.6591C69.8632 79.4413 69.2987 80.4088 69 81.47C68 85.39 68 93.47 68 93.47C68 93.47 68 101.62 69 105.47C69.293 106.525 69.854 107.487 70.6285 108.262C71.403 109.036 72.3646 109.597 73.42 109.89C77.39 111 93 111 93 111C93 111 108.66 111 112.58 110C113.644 109.718 114.614 109.158 115.391 108.378C116.168 107.598 116.723 106.625 117 105.56C118 101.66 118 93.56 118 93.56C118 93.56 118 85.41 117 81.49C116.72 80.4365 116.166 79.4757 115.395 78.7048C114.624 77.934 113.664 77.3804 112.61 77.1C108.64 76 93 76 93 76ZM88 86L101 93.5L88 101V86Z" fill="#FF0000"/>
</g>
<defs>
<clipPath id="clip0">
<rect width="50" height="34.99" fill="white" transform="translate(68 76)"/>
</clipPath>
</defs>
</svg>
