<svg width="32" height="32" viewBox="0 0 32 32" fill="none" xmlns="http://www.w3.org/2000/svg">
<g clip-path="url(#clip0)">
<rect width="32" height="32" rx="9.6" fill="#E6001F"/>
<path fill-rule="evenodd" clip-rule="evenodd" d="M13.0328 20.7538H16.1046C16.0907 20.7705 17.4402 23.9695 17.4402 24H20.2895C20.2938 24.0085 15.946 14.1027 15.9266 14.0832C15.9696 14.0499 13.0605 20.762 13.0328 20.7538ZM6.6665 8.00001C6.67339 7.98881 6.68867 23.9555 6.68867 23.9779C6.71089 23.9987 13.3638 7.99582 13.3444 8.00001H6.6665V8.00001ZM18.4279 8.00001C18.4279 8.00001 25.3325 24.0378 25.3283 23.986C25.3283 24.0084 25.3332 8.04028 25.3332 8.00001H18.4279V8.00001Z" fill="white"/>
</g>
<defs>
<clipPath id="clip0">
<rect width="32" height="32" fill="white"/>
</clipPath>
</defs>
</svg>
