<svg width="48" height="48" viewBox="0 0 48 48" fill="none" xmlns="http://www.w3.org/2000/svg">
<g clip-path="url(#clip0)">
<rect width="48" height="48" rx="14.4" fill="#E6001F"/>
<path fill-rule="evenodd" clip-rule="evenodd" d="M19.5494 31.1307H24.1572C24.1362 31.1558 26.1606 35.9542 26.1606 36H30.4346C30.4409 36.0128 23.9193 21.1541 23.8902 21.1248C23.9546 21.0748 19.591 31.143 19.5494 31.1307ZM10 12C10.0103 11.9832 10.0332 35.9333 10.0332 35.9669C10.0666 35.9981 20.046 11.9937 20.0169 12H10V12ZM27.6421 12C27.6421 12 37.9991 36.0567 37.9928 35.9791C37.9928 36.0127 38 12.0604 38 12H27.6421V12Z" fill="white"/>
</g>
<defs>
<clipPath id="clip0">
<rect width="48" height="48" fill="white"/>
</clipPath>
</defs>
</svg>
