<svg width="32" height="32" viewBox="0 0 32 32" fill="none" xmlns="http://www.w3.org/2000/svg">
<rect width="32" height="32" rx="9.6" fill="#FF9201"/>
<path d="M21.7006 18.3038C21.2559 17.6954 20.7788 17.2004 20.7788 16.0682V12.3098C20.7788 10.7169 20.8943 9.25464 19.7073 8.15877C18.7729 7.27009 17.2208 6.95654 16.0338 6.95654C13.7123 6.95654 11.1225 7.81297 10.5794 10.6509C10.5219 10.9524 10.7432 11.1102 10.9439 11.1545L13.3078 11.4075C13.5292 11.3964 13.6891 11.1812 13.7319 10.9645C13.9346 9.98654 14.7626 9.51674 15.6929 9.51674C16.1947 9.51674 16.7645 9.69821 17.0615 10.1433C17.4034 10.6388 17.3575 11.3198 17.3575 11.892V12.207C15.9436 12.3633 14.094 12.4671 12.7698 13.0412C11.2425 13.6955 10.1699 15.0268 10.1699 16.9836C10.1699 19.4914 11.7659 20.745 13.8207 20.745C15.5548 20.745 16.5038 20.3402 17.8416 18.9914C18.2854 19.6275 18.4306 19.934 19.2399 20.5999C19.4214 20.6957 19.6554 20.6865 19.8162 20.5424L19.8168 20.5419L19.8223 20.5479C20.3094 20.1195 21.1939 19.3593 21.6926 18.946C21.8917 18.7842 21.8564 18.5226 21.7006 18.3038ZM16.9012 17.22C16.5139 17.9005 15.8972 18.3169 15.2119 18.3169C14.2775 18.3169 13.7289 17.6112 13.7289 16.5672C13.7289 14.5121 15.5936 14.1391 17.357 14.1391V14.6598H17.3575C17.3575 15.5999 17.3802 16.3827 16.9012 17.22Z" fill="white"/>
<path d="M24.6158 22.405C22.2808 24.1272 18.8945 25.0436 15.9781 25.0436C11.8924 25.0436 8.21213 23.5339 5.42733 21.0206C5.20889 20.823 5.40386 20.5531 5.66629 20.7065C8.67128 22.4545 12.3867 23.5067 16.2241 23.5067C18.813 23.5067 21.6584 22.9701 24.2765 21.8593C24.6715 21.6924 25.0025 22.1202 24.6158 22.405Z" fill="white"/>
<path d="M25.5876 21.2956C25.2891 20.9137 23.6127 21.1146 22.8609 21.2054C22.6322 21.2319 22.597 21.0335 22.8025 20.888C24.1393 19.9494 26.3299 20.221 26.5847 20.5347C26.8415 20.8528 26.5177 23.0479 25.2646 24.0951C25.0718 24.2567 24.8887 24.1716 24.9739 23.9584C25.2557 23.2537 25.8872 21.678 25.5876 21.2956Z" fill="white"/>
</svg>
