<svg width="48" height="48" viewBox="0 0 48 48" fill="none" xmlns="http://www.w3.org/2000/svg">
<rect width="48" height="48" rx="14.4" fill="#FF9201"/>
<path d="M32.5509 27.4557C31.8838 26.5431 31.1682 25.8006 31.1682 24.1023V18.4647C31.1682 16.0754 31.3415 13.882 29.5609 12.2382C28.1594 10.9051 25.8313 10.4348 24.0507 10.4348C20.5684 10.4348 16.6837 11.7195 15.869 15.9764C15.7828 16.4285 16.1148 16.6652 16.4159 16.7318L19.9618 17.1113C20.2938 17.0946 20.5336 16.7718 20.5979 16.4467C20.9019 14.9798 22.1439 14.2751 23.5394 14.2751C24.292 14.2751 25.1467 14.5473 25.5922 15.215C26.105 15.9582 26.0362 16.9797 26.0362 17.8379V18.3105C23.9154 18.5449 21.141 18.7007 19.1547 19.5619C16.8637 20.5433 15.2549 22.5402 15.2549 25.4754C15.2549 29.2371 17.6488 31.1175 20.7311 31.1175C23.3322 31.1175 24.7557 30.5104 26.7624 28.487C27.428 29.4412 27.6459 29.9009 28.8598 30.8998C29.1321 31.0435 29.4831 31.0298 29.7243 30.8136L29.7252 30.8128L29.7334 30.8219C30.4641 30.1792 31.7908 29.039 32.5388 28.419C32.8376 28.1763 32.7846 27.7839 32.5509 27.4557ZM25.3517 25.8301C24.7709 26.8508 23.8458 27.4753 22.8179 27.4753C21.4163 27.4753 20.5933 26.4168 20.5933 24.8508C20.5933 21.7682 23.3904 21.2087 26.0355 21.2087V21.9897H26.0362C26.0362 23.3999 26.0703 24.5741 25.3517 25.8301Z" fill="white"/>
<path d="M36.9242 33.6075C33.4216 36.1909 28.3422 37.5654 23.9677 37.5654C17.8391 37.5654 12.3187 35.3009 8.14148 31.5309C7.81382 31.2345 8.10628 30.8297 8.49993 31.0598C13.0074 33.6818 18.5806 35.2601 24.3366 35.2601C28.22 35.2601 32.4881 34.4553 36.4153 32.7891C37.0077 32.5386 37.5042 33.1803 36.9242 33.6075Z" fill="white"/>
<path d="M38.3819 31.9433C37.9342 31.3706 35.4195 31.6719 34.2918 31.8081C33.9488 31.8479 33.896 31.5503 34.2042 31.3319C36.2095 29.924 39.4954 30.3315 39.8776 30.8021C40.2627 31.2792 39.777 34.5719 37.8974 36.1426C37.6082 36.3851 37.3336 36.2574 37.4613 35.9375C37.8841 34.8806 38.8312 32.5171 38.3819 31.9433Z" fill="white"/>
</svg>
