<svg width="32" height="32" viewBox="0 0 32 32" fill="none" xmlns="http://www.w3.org/2000/svg">
<rect width="32" height="32" rx="9.6" fill="white"/>
<path d="M12.3878 16.2896C12.4025 17.8582 13.7658 18.386 13.7805 18.3933C13.7658 18.43 13.5606 19.141 13.0622 19.8667C12.6297 20.4971 12.1825 21.1274 11.4715 21.1421C10.7752 21.1568 10.5553 20.7316 9.75628 20.7316C8.96463 20.7316 8.71541 21.1274 8.0557 21.1568C7.38133 21.1788 6.86089 20.4677 6.42109 19.8373C5.53415 18.5473 4.85245 16.1943 5.76871 14.611C6.22317 13.8193 7.03682 13.3209 7.91643 13.3136C8.58347 13.2989 9.22119 13.768 9.63167 13.768C10.0422 13.768 10.8118 13.2109 11.6181 13.2916C11.9553 13.3062 12.9082 13.4308 13.5166 14.3178C13.4653 14.3471 12.3805 14.9775 12.3878 16.2896V16.2896ZM11.083 12.4339C11.4422 11.9941 11.6914 11.3857 11.6255 10.7773C11.105 10.7993 10.4746 11.1219 10.0935 11.5617C9.75628 11.9502 9.46308 12.5732 9.54371 13.167C10.1228 13.2109 10.7239 12.8664 11.083 12.4339Z" fill="url(#paint0_radial)"/>
<path d="M18.8679 21.0395C18.4208 21.1641 17.959 21.2227 17.4899 21.2227C16.3977 21.2227 15.8553 20.607 15.8553 19.3682V13.9073H14.9097V12.9177H15.9066V11.6276L17.2187 11.0925V12.9251H18.736V13.9146H17.226V19.075C17.226 19.4708 17.292 19.742 17.4166 19.9033C17.5412 20.0646 17.7684 20.1379 18.0836 20.1379C18.2669 20.1379 18.5234 20.1012 18.8679 20.0353V21.0395Z" fill="url(#paint1_radial)"/>
<path d="M23.6179 21.0981H22.0053L19.0366 12.9177H20.488L22.2839 18.2394C22.3498 18.4446 22.5257 19.0384 22.8043 20.0279L23.0682 19.141L23.3614 18.2467L25.2232 12.9104H26.6673L23.6179 21.0981Z" fill="url(#paint2_radial)"/>
<defs>
<radialGradient id="paint0_radial" cx="0" cy="0" r="1" gradientUnits="userSpaceOnUse" gradientTransform="translate(15.6569 25.3813) rotate(-90) scale(16.8599 33.7198)">
<stop/>
<stop offset="0.575"/>
<stop offset="0.598" stop-color="#7D7D7D"/>
<stop offset="0.64" stop-color="#575757"/>
<stop offset="0.751"/>
<stop offset="1"/>
</radialGradient>
<radialGradient id="paint1_radial" cx="0" cy="0" r="1" gradientUnits="userSpaceOnUse" gradientTransform="translate(15.6573 25.3813) rotate(-90) scale(16.8599 33.7198)">
<stop/>
<stop offset="0.575"/>
<stop offset="0.598" stop-color="#7D7D7D"/>
<stop offset="0.64" stop-color="#575757"/>
<stop offset="0.751"/>
<stop offset="1"/>
</radialGradient>
<radialGradient id="paint2_radial" cx="0" cy="0" r="1" gradientUnits="userSpaceOnUse" gradientTransform="translate(15.6574 25.3813) rotate(-90) scale(16.8599 33.7198)">
<stop/>
<stop offset="0.575"/>
<stop offset="0.598" stop-color="#7D7D7D"/>
<stop offset="0.64" stop-color="#575757"/>
<stop offset="0.751"/>
<stop offset="1"/>
</radialGradient>
</defs>
</svg>
