<svg width="32" height="32" viewBox="0 0 32 32" fill="none" xmlns="http://www.w3.org/2000/svg">
<g clip-path="url(#clip0)">
<rect width="32" height="32" rx="9.6" fill="#1F2161"/>
<path d="M20.411 17.7057C20.1157 17.7734 19.3386 17.8123 19.3386 17.8123L19.2402 18.1199C19.2402 18.1199 19.6277 18.0871 19.9107 18.1158C19.9107 18.1158 20.0029 18.1055 20.0132 18.2204C20.0173 18.327 20.005 18.4418 20.005 18.4418C20.005 18.4418 19.9988 18.5115 19.9004 18.5279C19.7938 18.5464 19.0639 18.573 19.0639 18.573L18.9449 18.9729C18.9449 18.9729 18.9019 19.0651 19.0003 19.0385C19.0926 19.0139 19.8574 18.8703 19.9578 18.8909C20.0645 18.9175 20.1834 19.059 20.1485 19.1902C20.1075 19.3501 19.3448 19.8381 18.8793 19.8033C18.8793 19.8033 18.6353 19.8197 18.4282 19.4896C18.2355 19.1759 18.502 18.5792 18.502 18.5792C18.502 18.5792 18.3811 18.3003 18.4692 18.2081C18.4692 18.2081 18.5225 18.1609 18.6743 18.1486L18.8609 17.7611C18.8609 17.7611 18.6476 17.7754 18.5205 17.6196C18.4016 17.4699 18.3934 17.4022 18.4836 17.3612C18.58 17.3141 19.4678 17.1521 20.0788 17.1726C20.0788 17.1726 20.2921 17.1521 20.4745 17.5212C20.4725 17.5212 20.5627 17.6708 20.411 17.7057V17.7057ZM18.1125 19.1943C18.0345 19.3789 17.8274 19.5757 17.5711 19.4527C17.3169 19.3296 16.913 18.5033 16.913 18.5033C16.913 18.5033 16.7592 18.1958 16.7305 18.2019C16.7305 18.2019 16.6977 18.1424 16.6772 18.4787C16.6567 18.815 16.6813 19.4691 16.548 19.5716C16.4209 19.6741 16.2671 19.6331 16.1871 19.5121C16.1153 19.3932 16.0846 19.1102 16.1235 18.614C16.1707 18.1178 16.2855 17.5888 16.4332 17.4227C16.5808 17.2587 16.6997 17.3776 16.7448 17.4207C16.7448 17.4207 16.9417 17.5991 17.2677 18.124L17.3251 18.2204C17.3251 18.2204 17.6204 18.7166 17.6511 18.7145C17.6511 18.7145 17.6757 18.7371 17.6962 18.7207C17.727 18.7125 17.7147 18.5525 17.7147 18.5525C17.7147 18.5525 17.6532 18.0133 17.3846 17.0988C17.3846 17.0988 17.3435 16.984 17.3723 16.8773C17.3989 16.7687 17.5076 16.8199 17.5076 16.8199C17.5076 16.8199 17.9259 17.0291 18.1268 17.7098C18.3257 18.3967 18.1904 19.0098 18.1125 19.1943V19.1943ZM16.0579 17.4453C16.0231 17.515 16.0026 17.6155 15.8262 17.6421C15.8262 17.6421 14.1387 17.757 14.0588 17.8759C14.0588 17.8759 13.9993 17.9456 14.0916 17.9661C14.1838 17.9846 14.5652 18.0358 14.7498 18.0461C14.9466 18.0481 15.6109 18.0543 15.8488 18.3516C15.8488 18.3516 15.9903 18.4931 15.9841 18.8129C15.978 19.141 15.9206 19.2558 15.7934 19.3747C15.6602 19.4855 14.516 19.9981 13.7779 19.2107C13.7779 19.2107 13.4375 18.8314 13.8947 18.5443C13.8947 18.5443 14.2249 18.3454 15.0635 18.5792C15.0635 18.5792 15.3177 18.6715 15.3054 18.7637C15.2911 18.8621 15.0963 18.9667 14.8133 18.9606C14.5386 18.9524 14.3376 18.8211 14.3766 18.8416C14.4135 18.856 14.0813 18.6817 13.9788 18.8006C13.8763 18.9093 13.9009 18.977 14.0014 19.0446C14.2577 19.1902 15.248 19.139 15.5433 18.8109C15.5433 18.8109 15.6602 18.6776 15.4818 18.5689C15.3034 18.4664 14.7928 18.4049 14.5939 18.3946C14.4032 18.3844 13.6938 18.3967 13.5913 18.2081C13.5913 18.2081 13.4888 18.0809 13.6015 17.7201C13.7204 17.3428 14.5468 17.1972 14.9035 17.1644C14.9035 17.1644 15.8857 17.1295 16.0661 17.3305C16.0641 17.3305 16.0887 17.3776 16.0579 17.4453V17.4453ZM13.2694 19.6577C13.1504 19.7459 12.8982 19.7069 12.8265 19.6085C12.7547 19.5203 12.7301 19.1697 12.7444 18.6202C12.7588 18.0645 12.7711 17.3756 12.89 17.2669C13.0172 17.1562 13.0951 17.2526 13.1443 17.3284C13.1976 17.4022 13.2612 17.4843 13.2755 17.6585C13.2878 17.8328 13.3288 18.7473 13.3288 18.7473C13.3288 18.7473 13.3821 19.5716 13.2694 19.6577ZM13.5257 16.7092C13.1791 16.824 12.9413 16.7851 12.7403 16.6989C12.6522 16.8527 12.6009 16.8999 12.5333 16.9101C12.4348 16.9204 12.3467 16.7625 12.3303 16.7112C12.3139 16.6723 12.2667 16.6067 12.3241 16.4508C12.1273 16.2745 12.1129 16.0367 12.1457 15.8767C12.1949 15.6922 12.5271 14.9909 13.538 14.9089C13.538 14.9089 14.0321 14.872 14.1162 15.1365H14.1305C14.1305 15.1365 14.6103 15.1386 14.6001 15.5651C14.5939 15.9936 14.067 16.5267 13.5257 16.7092V16.7092ZM12.5825 15.7599C12.4799 15.9239 12.4758 16.0223 12.523 16.09C12.6399 15.9116 12.8531 15.6307 13.1668 15.4174C12.9249 15.4379 12.7219 15.5425 12.5825 15.7599V15.7599ZM13.9788 15.4851C13.661 15.5323 13.1689 15.9587 12.9351 16.3073C13.294 16.3729 13.9275 16.3483 14.2085 15.7763C14.2064 15.7763 14.3417 15.4215 13.9788 15.4851ZM22.607 18.7883C22.4163 19.1205 21.8811 19.8135 21.1676 19.6516C20.9318 20.2236 20.7349 20.7998 20.6222 21.6651C20.6222 21.6651 20.5976 21.8332 20.4581 21.7737C20.3208 21.7245 20.0911 21.4949 20.046 21.1771C19.9968 20.7588 20.1834 20.0514 20.5627 19.2415C20.452 19.061 20.3761 18.8027 20.4417 18.4357C20.4417 18.4357 20.5381 17.7549 21.2209 17.1398C21.2209 17.1398 21.3029 17.068 21.3501 17.0906C21.4034 17.1131 21.3788 17.3346 21.3357 17.4412C21.2927 17.5478 20.9872 18.0768 20.9872 18.0768C20.9872 18.0768 20.7965 18.4336 20.8498 18.7145C21.2086 18.163 22.0247 17.0496 22.5311 17.4002C22.7013 17.5212 22.7792 17.7857 22.7792 18.0707C22.7772 18.3229 22.7177 18.5894 22.607 18.7883V18.7883ZM22.4594 17.9148C22.4594 17.9148 22.4307 17.6955 22.2174 17.9374C22.0329 18.1404 21.7007 18.5238 21.4321 19.0426C21.713 19.0118 21.9837 18.858 22.0657 18.7801C22.199 18.6612 22.5086 18.3413 22.4594 17.9148V17.9148ZM12.5045 18.1937C12.4656 18.6899 12.2749 19.5244 10.9237 19.9366C10.0317 20.2052 9.18901 20.076 8.72972 19.9591C8.71946 20.1416 8.69896 20.2195 8.67026 20.2503C8.6313 20.2892 8.34014 20.4574 8.1802 20.2195C8.10844 20.1068 8.07153 19.9017 8.05103 19.7192C7.01761 19.2435 6.54191 18.5587 6.52346 18.5279C6.50091 18.5054 6.26511 18.2593 6.50091 17.9579C6.72235 17.6852 7.44615 17.4125 8.09819 17.3018C8.12074 16.7441 8.18636 16.3237 8.26427 16.131C8.35859 15.9075 8.47751 16.1084 8.58004 16.2602C8.66615 16.3729 8.71741 16.8589 8.72152 17.2464C9.148 17.2259 9.40021 17.2567 9.8759 17.3428C10.4951 17.4556 10.9093 17.7713 10.8724 18.1301C10.8458 18.4828 10.5218 18.6284 10.3988 18.6386C10.2696 18.6489 10.0686 18.5566 10.0686 18.5566C9.93127 18.491 10.0584 18.4336 10.2245 18.3618C10.4049 18.2737 10.3639 18.1835 10.3639 18.1835C10.2962 17.9866 9.49247 17.8492 8.69281 17.8492C8.68871 18.2901 8.71126 19.0221 8.72152 19.4486C9.28128 19.5552 9.69957 19.5347 9.69957 19.5347C9.69957 19.5347 11.7418 19.4773 11.8033 18.1732C11.8669 16.8671 9.76723 15.6143 8.21506 15.2165C6.66494 14.8105 5.78736 15.0935 5.71149 15.1324C5.62948 15.1734 5.70534 15.1857 5.70534 15.1857C5.70534 15.1857 5.78941 15.198 5.93499 15.2472C6.08877 15.2965 5.96985 15.3764 5.96985 15.3764C5.70534 15.4605 5.40803 15.4072 5.35062 15.2862C5.29321 15.1652 5.38958 15.0566 5.5003 14.9007C5.61102 14.7367 5.732 14.7428 5.732 14.7428C7.64914 14.0785 9.98458 15.2801 9.98458 15.2801C12.1724 16.3893 12.5456 17.6893 12.5045 18.1937V18.1937ZM6.71825 18.126C6.50091 18.2327 6.65059 18.3864 6.65059 18.3864C7.05862 18.8252 7.56098 19.1 8.03872 19.2702C8.09409 18.5136 8.08588 18.247 8.09204 17.8656C7.34568 17.9169 6.91509 18.0358 6.71825 18.126V18.126Z" fill="white"/>
<path d="M26.6668 17.9703V18.2409C26.6668 18.3004 26.6197 18.3476 26.5602 18.3476H25.2705C25.2705 18.4152 25.2725 18.4747 25.2725 18.5301C25.2725 18.9299 25.2561 19.2559 25.2172 19.6229C25.211 19.6783 25.1659 19.7193 25.1126 19.7193H24.8337C24.805 19.7193 24.7784 19.707 24.7599 19.6865C24.7415 19.666 24.7312 19.6373 24.7353 19.6086C24.7743 19.2436 24.7927 18.9217 24.7927 18.5301C24.7927 18.4726 24.7927 18.4132 24.7907 18.3476H23.5153C23.4559 18.3476 23.4087 18.3004 23.4087 18.2409V17.9703C23.4087 17.9108 23.4559 17.8637 23.5153 17.8637H24.7722C24.7456 17.4228 24.6923 16.9984 24.6061 16.5678C24.602 16.5411 24.6082 16.5145 24.6246 16.494C24.641 16.4735 24.6656 16.4612 24.6923 16.4612H24.9937C25.0408 16.4612 25.0798 16.494 25.09 16.5411C25.1741 16.9861 25.2274 17.4187 25.2541 17.8637H26.5602C26.6176 17.8637 26.6668 17.9129 26.6668 17.9703V17.9703Z" fill="white"/>
<path d="M24.9114 15.8235C24.245 14.1852 23.1194 12.7888 21.6554 11.7841C20.1565 10.7569 18.3993 10.2135 16.5744 10.2135C13.5562 10.2135 10.7553 11.7124 9.0842 14.2241C9.06575 14.2508 9.06165 14.2856 9.0719 14.3164C9.08215 14.3492 9.10676 14.3718 9.13751 14.382L9.37126 14.462C9.38561 14.4661 9.39997 14.4681 9.41227 14.4681C9.45533 14.4681 9.49634 14.4456 9.52094 14.4107C10.2878 13.283 11.3253 12.3459 12.5228 11.698C13.7592 11.0296 15.1596 10.6748 16.5723 10.6748C18.2804 10.6748 19.9268 11.1793 21.3375 12.1306C22.7134 13.0595 23.7816 14.3574 24.4275 15.8809C24.446 15.926 24.4911 15.9567 24.5403 15.9567H24.8192C24.852 15.9567 24.8827 15.9403 24.8991 15.9137C24.9196 15.887 24.9237 15.8542 24.9114 15.8235ZM9.41227 14.3984C9.40612 14.3984 9.39997 14.3964 9.39382 14.3943C9.39997 14.3964 9.40612 14.3984 9.41227 14.3984ZM24.4829 15.9198C24.489 15.9239 24.4952 15.928 24.5013 15.9301C24.4952 15.926 24.489 15.9239 24.4829 15.9198Z" fill="url(#paint0_radial)"/>
</g>
<defs>
<radialGradient id="paint0_radial" cx="0" cy="0" r="1" gradientUnits="userSpaceOnUse" gradientTransform="translate(24.6495 15.9464) scale(15.5858)">
<stop offset="0.007" stop-color="white"/>
<stop offset="0.03" stop-color="#CBFFFF"/>
<stop offset="0.057" stop-color="#96FFFF"/>
<stop offset="0.084" stop-color="#68FFFF"/>
<stop offset="0.111" stop-color="#43FFFF"/>
<stop offset="0.138" stop-color="#25FFFF"/>
<stop offset="0.165" stop-color="#11FFFF"/>
<stop offset="0.191" stop-color="#04FFFF"/>
<stop offset="0.216" stop-color="#00FFFF"/>
<stop offset="1" stop-color="#0000FF" stop-opacity="0"/>
</radialGradient>
<clipPath id="clip0">
<rect width="32" height="32" fill="white"/>
</clipPath>
</defs>
</svg>
