<svg width="48" height="48" viewBox="0 0 48 48" fill="none" xmlns="http://www.w3.org/2000/svg">
<rect width="48" height="48" rx="14.4" fill="#1F2161"/>
<path d="M30.6162 26.5586C30.1733 26.6601 29.0077 26.7186 29.0077 26.7186L28.86 27.1799C28.86 27.1799 29.4413 27.1307 29.8658 27.1737C29.8658 27.1737 30.0042 27.1584 30.0196 27.3306C30.0257 27.4905 30.0073 27.6628 30.0073 27.6628C30.0073 27.6628 29.998 27.7673 29.8504 27.7919C29.6905 27.8196 28.5955 27.8596 28.5955 27.8596L28.4172 28.4594C28.4172 28.4594 28.3526 28.5978 28.5002 28.5578C28.6386 28.5209 29.7858 28.3056 29.9365 28.3363C30.0964 28.3763 30.2748 28.5885 30.2226 28.7854C30.161 29.0253 29.0169 29.7573 28.3187 29.705C28.3187 29.705 27.9527 29.7296 27.6421 29.2344C27.353 28.7639 27.7528 27.8688 27.7528 27.8688C27.7528 27.8688 27.5714 27.4506 27.7036 27.3122C27.7036 27.3122 27.7836 27.2414 28.0112 27.223L28.2911 26.6417C28.2911 26.6417 27.9712 26.6632 27.7805 26.4294C27.6021 26.2049 27.5898 26.1034 27.7251 26.0419C27.8697 25.9712 29.2014 25.7282 30.118 25.759C30.118 25.759 30.4378 25.7282 30.7116 26.2818C30.7085 26.2818 30.8438 26.5063 30.6162 26.5586V26.5586ZM27.1684 28.7915C27.0516 29.0683 26.7409 29.3636 26.3565 29.1791C25.9751 28.9945 25.3692 27.755 25.3692 27.755C25.3692 27.755 25.1385 27.2937 25.0955 27.3029C25.0955 27.3029 25.0463 27.2137 25.0155 27.7181C24.9847 28.2225 25.0217 29.2037 24.8217 29.3574C24.631 29.5112 24.4004 29.4497 24.2804 29.2683C24.1728 29.0899 24.1266 28.6654 24.1851 27.9211C24.2558 27.1768 24.4281 26.3833 24.6495 26.1342C24.8709 25.8881 25.0493 26.0665 25.117 26.1311C25.117 26.1311 25.4123 26.3987 25.9013 27.186L25.9874 27.3306C25.9874 27.3306 26.4303 28.0749 26.4764 28.0718C26.4764 28.0718 26.5133 28.1057 26.5441 28.0811C26.5902 28.0688 26.5718 27.8289 26.5718 27.8289C26.5718 27.8289 26.4795 27.02 26.0766 25.6482C26.0766 25.6482 26.0151 25.476 26.0581 25.3161C26.0981 25.1531 26.2611 25.2299 26.2611 25.2299C26.2611 25.2299 26.8886 25.5437 27.19 26.5648C27.4883 27.5951 27.2853 28.5147 27.1684 28.7915V28.7915ZM24.0867 26.168C24.0344 26.2726 24.0036 26.4233 23.7391 26.4633C23.7391 26.4633 21.2079 26.6355 21.0879 26.8139C21.0879 26.8139 20.9987 26.9185 21.1371 26.9492C21.2755 26.9769 21.8476 27.0538 22.1244 27.0692C22.4197 27.0722 23.4162 27.0815 23.7729 27.5274C23.7729 27.5274 23.9852 27.7397 23.9759 28.2195C23.9667 28.7116 23.8806 28.8838 23.6899 29.0622C23.49 29.2283 21.7738 29.9972 20.6665 28.8161C20.6665 28.8161 20.156 28.2471 20.8419 27.8166C20.8419 27.8166 21.337 27.5182 22.595 27.8688C22.595 27.8688 22.9764 28.0072 22.9579 28.1456C22.9364 28.2933 22.6442 28.4501 22.2197 28.4409C21.8076 28.4286 21.5062 28.2318 21.5646 28.2625C21.62 28.2841 21.1217 28.0226 20.968 28.201C20.8142 28.364 20.8511 28.4655 21.0018 28.567C21.3862 28.7854 22.8718 28.7085 23.3147 28.2164C23.3147 28.2164 23.49 28.0165 23.2224 27.8535C22.9548 27.6997 22.189 27.6074 21.8907 27.592C21.6046 27.5767 20.5404 27.5951 20.3867 27.3122C20.3867 27.3122 20.2329 27.1215 20.402 26.5801C20.5804 26.0142 21.8199 25.7959 22.3551 25.7467C22.3551 25.7467 23.8283 25.6944 24.099 25.9958C24.0959 25.9958 24.1328 26.0665 24.0867 26.168V26.168ZM19.9038 29.4866C19.7254 29.6189 19.3471 29.5604 19.2395 29.4128C19.1318 29.2806 19.0949 28.7546 19.1164 27.9304C19.138 27.0969 19.1564 26.0634 19.3348 25.9004C19.5255 25.7343 19.6424 25.8789 19.7162 25.9927C19.7961 26.1034 19.8915 26.2265 19.913 26.4879C19.9315 26.7493 19.993 28.121 19.993 28.121C19.993 28.121 20.073 29.3574 19.9038 29.4866ZM20.2882 25.0639C19.7685 25.2361 19.4117 25.1777 19.1103 25.0485C18.978 25.2792 18.9011 25.3499 18.7996 25.3653C18.652 25.3807 18.5198 25.1438 18.4951 25.0669C18.4705 25.0085 18.3998 24.9101 18.4859 24.6763C18.1907 24.4118 18.1691 24.0551 18.2183 23.8152C18.2922 23.5383 18.7904 22.4865 20.3067 22.3635C20.3067 22.3635 21.0479 22.3081 21.174 22.7048H21.1956C21.1956 22.7048 21.9153 22.7079 21.8999 23.3477C21.8907 23.9905 21.1002 24.7901 20.2882 25.0639V25.0639ZM18.8735 23.6398C18.7197 23.8859 18.7135 24.0335 18.7843 24.135C18.9596 23.8674 19.2794 23.4461 19.75 23.1262C19.3871 23.157 19.0826 23.3138 18.8735 23.6398V23.6398ZM20.968 23.2277C20.4912 23.2984 19.7531 23.9382 19.4025 24.461C19.9407 24.5595 20.8911 24.5225 21.3124 23.6644C21.3094 23.6644 21.5123 23.1324 20.968 23.2277ZM33.9102 28.1826C33.6242 28.6808 32.8215 29.7204 31.7511 29.4774C31.3974 30.3355 31.1022 31.1998 30.933 32.4977C30.933 32.4977 30.8961 32.7499 30.687 32.6607C30.4809 32.5869 30.1364 32.2424 30.0688 31.7657C29.995 31.1382 30.2748 30.0771 30.8438 28.8623C30.6777 28.5916 30.5639 28.2041 30.6624 27.6535C30.6624 27.6535 30.8069 26.6324 31.8311 25.7097C31.8311 25.7097 31.9541 25.6021 32.0249 25.6359C32.1048 25.6698 32.0679 26.0019 32.0033 26.1619C31.9388 26.3218 31.4805 27.1153 31.4805 27.1153C31.4805 27.1153 31.1945 27.6505 31.2744 28.0718C31.8127 27.2445 33.0368 25.5744 33.7964 26.1003C34.0517 26.2818 34.1686 26.6786 34.1686 27.1061C34.1655 27.4844 34.0763 27.8842 33.9102 28.1826V28.1826ZM33.6888 26.8723C33.6888 26.8723 33.6457 26.5432 33.3259 26.9062C33.0491 27.2107 32.5508 27.7858 32.1479 28.5639C32.5693 28.5178 32.9752 28.2871 33.0983 28.1703C33.2982 27.9919 33.7626 27.5121 33.6888 26.8723V26.8723ZM18.7566 27.2906C18.6981 28.0349 18.4121 29.2867 16.3853 29.9049C15.0474 30.3078 13.7833 30.1141 13.0943 29.9387C13.079 30.2125 13.0482 30.3293 13.0051 30.3755C12.9467 30.4339 12.51 30.6861 12.2701 30.3293C12.1624 30.1602 12.1071 29.8526 12.0763 29.5789C10.5262 28.8653 9.81263 27.8381 9.78495 27.7919C9.75112 27.7581 9.39742 27.389 9.75111 26.9369C10.0833 26.5279 11.169 26.1188 12.147 25.9527C12.1809 25.1161 12.2793 24.4856 12.3962 24.1965C12.5376 23.8613 12.716 24.1627 12.8698 24.3903C12.999 24.5595 13.0759 25.2884 13.082 25.8697C13.7218 25.8389 14.1001 25.8851 14.8136 26.0142C15.7425 26.1834 16.3637 26.657 16.3084 27.1953C16.2684 27.7243 15.7824 27.9427 15.5979 27.958C15.4041 27.9734 15.1027 27.835 15.1027 27.835C14.8967 27.7366 15.0873 27.6505 15.3365 27.5428C15.6071 27.4106 15.5456 27.2752 15.5456 27.2752C15.4441 26.98 14.2385 26.7739 13.039 26.7739C13.0328 27.4352 13.0667 28.5332 13.082 29.1729C13.9217 29.3328 14.5491 29.3021 14.5491 29.3021C14.5491 29.3021 17.6124 29.216 17.7047 27.2599C17.8001 25.3007 14.6506 23.4215 12.3223 22.8248C9.99717 22.2158 8.68079 22.6403 8.56699 22.6987C8.44397 22.7602 8.55777 22.7787 8.55777 22.7787C8.55777 22.7787 8.68387 22.7971 8.90224 22.8709C9.13291 22.9447 8.95453 23.0647 8.95453 23.0647C8.55777 23.1908 8.1118 23.1108 8.02568 22.9294C7.93956 22.7479 8.08412 22.5849 8.2502 22.3511C8.41629 22.1051 8.59775 22.1143 8.59775 22.1143C11.4735 21.1178 14.9766 22.9201 14.9766 22.9201C18.2583 24.5841 18.8181 26.534 18.7566 27.2906V27.2906ZM10.0771 27.1891C9.75111 27.3491 9.97564 27.5797 9.97564 27.5797C10.5877 28.2379 11.3412 28.6501 12.0578 28.9053C12.1409 27.7704 12.1286 27.3706 12.1378 26.7985C11.0183 26.8754 10.3724 27.0538 10.0771 27.1891V27.1891Z" fill="white"/>
<path d="M40 26.9553V27.3613C40 27.4505 39.9292 27.5212 39.84 27.5212H37.9055C37.9055 27.6227 37.9085 27.7119 37.9085 27.795C37.9085 28.3947 37.8839 28.8837 37.8255 29.4343C37.8163 29.5173 37.7486 29.5788 37.6686 29.5788H37.2504C37.2073 29.5788 37.1673 29.5604 37.1396 29.5296C37.112 29.4989 37.0966 29.4558 37.1027 29.4128C37.1612 28.8653 37.1888 28.3824 37.1888 27.795C37.1888 27.7089 37.1888 27.6197 37.1858 27.5212H35.2727C35.1835 27.5212 35.1128 27.4505 35.1128 27.3613V26.9553C35.1128 26.8661 35.1835 26.7954 35.2727 26.7954H37.1581C37.1181 26.1341 37.0381 25.4975 36.909 24.8516C36.9028 24.8116 36.912 24.7716 36.9366 24.7409C36.9613 24.7101 36.9982 24.6917 37.0381 24.6917H37.4903C37.561 24.6917 37.6194 24.7409 37.6348 24.8116C37.7609 25.479 37.8409 26.128 37.8809 26.7954H39.84C39.9262 26.7954 40 26.8692 40 26.9553V26.9553Z" fill="white"/>
<path d="M37.3671 23.7353C36.3676 21.2778 34.679 19.1833 32.483 17.6763C30.2347 16.1354 27.5989 15.3203 24.8616 15.3203C20.3343 15.3203 16.1329 17.5686 13.6263 21.3363C13.5986 21.3762 13.5925 21.4285 13.6078 21.4747C13.6232 21.5239 13.6601 21.5577 13.7063 21.5731L14.0569 21.693C14.0784 21.6992 14.1 21.7023 14.1184 21.7023C14.183 21.7023 14.2445 21.6684 14.2814 21.6161C15.4317 19.9245 16.988 18.519 18.7841 17.5471C20.6388 16.5444 22.7394 16.0123 24.8585 16.0123C27.4205 16.0123 29.8903 16.7689 32.0063 18.196C34.0701 19.5893 35.6725 21.5362 36.6413 23.8214C36.669 23.889 36.7366 23.9352 36.8104 23.9352H37.2287C37.2779 23.9352 37.3241 23.9106 37.3487 23.8706C37.3794 23.8306 37.3856 23.7814 37.3671 23.7353ZM14.1184 21.5977C14.1092 21.5977 14.0999 21.5946 14.0907 21.5915C14.0999 21.5946 14.1092 21.5977 14.1184 21.5977ZM36.7243 23.8798C36.7336 23.886 36.7428 23.8921 36.752 23.8952C36.7428 23.889 36.7336 23.886 36.7243 23.8798Z" fill="url(#paint0_radial)"/>
<defs>
<radialGradient id="paint0_radial" cx="0" cy="0" r="1" gradientUnits="userSpaceOnUse" gradientTransform="translate(36.9742 23.9197) scale(23.3786)">
<stop offset="0.007" stop-color="white"/>
<stop offset="0.03" stop-color="#CBFFFF"/>
<stop offset="0.057" stop-color="#96FFFF"/>
<stop offset="0.084" stop-color="#68FFFF"/>
<stop offset="0.111" stop-color="#43FFFF"/>
<stop offset="0.138" stop-color="#25FFFF"/>
<stop offset="0.165" stop-color="#11FFFF"/>
<stop offset="0.191" stop-color="#04FFFF"/>
<stop offset="0.216" stop-color="#00FFFF"/>
<stop offset="1" stop-color="#0000FF" stop-opacity="0"/>
</radialGradient>
</defs>
</svg>
