<svg width="32" height="32" viewBox="0 0 32 32" fill="none" xmlns="http://www.w3.org/2000/svg">
<rect width="32" height="32" rx="9.6" fill="white"/>
<path d="M18.4062 19.702H20.1058V12.6666H18.4062V19.702ZM15.4221 17.6961C15.4221 17.9431 15.2146 18.1506 14.9676 18.1506H13.9795C13.7324 18.1506 13.5249 17.9431 13.5249 17.6961V14.8602H11.8254V17.8345C11.8254 19.0498 12.606 19.6921 13.7522 19.6921H15.4122C16.4695 19.6921 17.1118 18.9313 17.1118 17.8345V14.8602H15.4122C15.4221 14.8602 15.4221 17.6072 15.4221 17.6961V17.6961ZM24.9772 14.8602V17.6961C24.9772 17.9431 24.7697 18.1506 24.5226 18.1506H23.5345C23.2875 18.1506 23.08 17.9431 23.08 17.6961V14.8602H21.3804V17.8345C21.3804 19.0498 22.161 19.6921 23.3072 19.6921H24.9673C26.0246 19.6921 26.6668 18.9313 26.6668 17.8345V14.8602H24.9772ZM8.69308 14.8602H7.60615C7.22079 14.8602 7.03305 14.959 7.03305 14.959V12.6666H5.3335V19.6921H7.02317V16.8661C7.02317 16.6191 7.23067 16.4116 7.4777 16.4116H8.46581C8.71284 16.4116 8.92034 16.6191 8.92034 16.8661V19.702H10.6199V16.6388C10.6199 15.3543 9.76024 14.8602 8.69308 14.8602V14.8602Z" fill="#1CE783"/>
</svg>
