<svg width="32" height="32" viewBox="0 0 32 32" fill="none" xmlns="http://www.w3.org/2000/svg">
<rect width="32" height="32" rx="9.6" fill="#292929"/>
<path d="M25.6668 23.7714L24.2206 22.3238C24.0684 22.2476 23.9923 22.019 23.9923 21.8667V10.2857C23.9923 10.1333 24.0684 9.90476 24.2206 9.75238L25.6668 8.07619V8H20.491L16.6091 17.8286L12.1944 8H6.8663V8.07619L8.23638 9.98095C8.54085 10.2857 8.61696 10.7429 8.61696 11.1238V19.5048C8.69308 19.9619 8.61696 20.4952 8.38861 20.9524L6.3335 23.7714V23.8476H11.8138V23.7714L9.75869 21.0286C9.53035 20.5714 9.45423 20.1143 9.53035 19.581V11.9619C9.60646 12.1143 9.68258 12.1143 9.75869 12.419L14.9345 24H15.0107L20.0343 11.4286C19.9582 11.8857 19.9582 12.419 19.9582 12.8V21.7905C19.9582 22.019 19.8821 22.1714 19.7298 22.3238L18.2075 23.7714V23.8476H25.6668V23.7714Z" fill="white"/>
</svg>
