<svg width="32" height="32" viewBox="0 0 32 32" fill="none" xmlns="http://www.w3.org/2000/svg">
<g clip-path="url(#clip0)">
<rect width="32" height="32" rx="9.6" fill="black"/>
</g>
<g clip-path="url(#clip1)">
<path fill-rule="evenodd" clip-rule="evenodd" d="M17.5763 5.39696V10.0688V14.7619L17.1898 13.6704L16.6929 24.1183C17.1813 25.5029 17.4446 26.2419 17.4489 26.2419L18.0689 26.2801C19.0925 26.3311 20.3624 26.4372 21.3222 26.5562C21.4626 26.5796 21.6047 26.591 21.747 26.5901C21.747 26.5901 21.747 21.7994 21.747 15.9723V5.35449H17.5848L17.5763 5.39696Z" fill="#B1060F" stroke="black" stroke-width="0.153333" stroke-miterlimit="10"/>
<path fill-rule="evenodd" clip-rule="evenodd" d="M10.0508 5.3844V16.0022C10.0508 21.8378 10.0508 26.62 10.0508 26.62C10.0508 26.62 10.4245 26.5903 10.8492 26.5394L12.1828 26.4077C12.6415 26.3695 14.0134 26.2803 14.1747 26.2803C14.2215 26.2803 14.2215 26.0382 14.23 21.7826V17.2891L14.5612 18.2277C14.6122 18.3764 14.6292 18.4188 14.6759 18.5632L15.1771 8.1153L15.0029 7.63113C14.6207 6.48016 14.2767 5.50332 14.2469 5.46085V5.3844H10.0508Z" fill="#B1060F" stroke="black" stroke-width="0.153333" stroke-miterlimit="10"/>
<path fill-rule="evenodd" clip-rule="evenodd" d="M10.0508 5.3844V11.3304L14.2469 22.4664V21.7826V17.2891L14.5782 18.2277C16.4257 23.4559 17.4153 26.259 17.4238 26.2675L18.0439 26.3058C19.0674 26.3567 20.3373 26.4629 21.2972 26.5818C21.4375 26.6052 21.5796 26.6166 21.7219 26.6158C21.7219 26.6158 21.7219 24.2671 21.7219 20.9586L17.5724 8.95199V10.0902V14.7833L17.186 13.6918C16.8122 12.63 16.5574 11.9165 15.0412 7.63113C14.6207 6.48016 14.2767 5.50332 14.2469 5.46085V5.3844H10.0508Z" fill="url(#paint0_radial)"/>
<path fill-rule="evenodd" clip-rule="evenodd" d="M10.0508 5.3844L14.2469 17.2976L14.5782 18.2362C16.4257 23.4644 17.4153 26.2675 17.4238 26.276L18.0439 26.3143C19.0674 26.3652 20.3373 26.4714 21.2972 26.5903C21.4375 26.614 21.5796 26.6253 21.7219 26.6243L17.5597 14.7791L17.1732 13.6875C16.7995 12.6258 16.5446 11.9122 15.0284 7.62688C14.6207 6.48016 14.2767 5.50332 14.2469 5.46085V5.3844H10.0508Z" fill="#E50914"/>
<path fill-rule="evenodd" clip-rule="evenodd" d="M17.5763 5.39696V10.0688V14.7619L17.1898 13.6704L16.6929 24.1183C17.1813 25.5029 17.4446 26.2419 17.4489 26.2419L18.0689 26.2801C19.0925 26.3311 20.3624 26.4372 21.3222 26.5562C21.4626 26.5796 21.6047 26.591 21.747 26.5901C21.747 26.5901 21.747 21.7994 21.747 15.9723V5.35449H17.5848L17.5763 5.39696Z" fill="#B1060F" stroke="black" stroke-width="0.153333" stroke-miterlimit="10"/>
<path fill-rule="evenodd" clip-rule="evenodd" d="M10.0508 5.3844V16.0022C10.0508 21.8378 10.0508 26.62 10.0508 26.62C10.0508 26.62 10.4245 26.5903 10.8492 26.5394L12.1828 26.4077C12.6415 26.3695 14.0134 26.2803 14.1747 26.2803C14.2215 26.2803 14.2215 26.0382 14.23 21.7826V17.2891L14.5612 18.2277C14.6122 18.3764 14.6292 18.4188 14.6759 18.5632L15.1771 8.1153L15.0029 7.63113C14.6207 6.48016 14.2767 5.50332 14.2469 5.46085V5.3844H10.0508Z" fill="#B1060F" stroke="black" stroke-width="0.153333" stroke-miterlimit="10"/>
<path fill-rule="evenodd" clip-rule="evenodd" d="M10.0508 5.3844V11.3304L14.2469 22.4664V21.7826V17.2891L14.5782 18.2277C16.4257 23.4559 17.4153 26.259 17.4238 26.2675L18.0439 26.3058C19.0674 26.3567 20.3373 26.4629 21.2972 26.5818C21.4375 26.6052 21.5796 26.6166 21.7219 26.6158C21.7219 26.6158 21.7219 24.2671 21.7219 20.9586L17.5724 8.95199V10.0902V14.7833L17.186 13.6918C16.8122 12.63 16.5574 11.9165 15.0412 7.63113C14.6207 6.48016 14.2767 5.50332 14.2469 5.46085V5.3844H10.0508Z" fill="url(#paint1_radial)"/>
<path fill-rule="evenodd" clip-rule="evenodd" d="M10.0508 5.3844L14.2469 17.2976L14.5782 18.2362C16.4257 23.4644 17.4153 26.2675 17.4238 26.276L18.0439 26.3143C19.0674 26.3652 20.3373 26.4714 21.2972 26.5903C21.4375 26.614 21.5796 26.6253 21.7219 26.6243L17.5597 14.7791L17.1732 13.6875C16.7995 12.6258 16.5446 11.9122 15.0284 7.62688C14.6207 6.48016 14.2767 5.50332 14.2469 5.46085V5.3844H10.0508Z" fill="#E50914"/>
</g>
<defs>
<radialGradient id="paint0_radial" cx="0" cy="0" r="1" gradientUnits="userSpaceOnUse" gradientTransform="translate(25.9196 25.3009) rotate(-18.4349) scale(2.66651 97.1499)">
<stop/>
<stop offset="1" stop-opacity="0"/>
</radialGradient>
<radialGradient id="paint1_radial" cx="0" cy="0" r="1" gradientUnits="userSpaceOnUse" gradientTransform="translate(25.9196 25.3009) rotate(-18.4349) scale(2.66651 97.1499)">
<stop/>
<stop offset="1" stop-opacity="0"/>
</radialGradient>
<clipPath id="clip0">
<rect width="32" height="32" fill="white"/>
</clipPath>
<clipPath id="clip1">
<rect width="11.7985" height="21.3333" fill="white" transform="translate(10 5.33337)"/>
</clipPath>
</defs>
</svg>
