<svg width="48" height="48" viewBox="0 0 48 48" fill="none" xmlns="http://www.w3.org/2000/svg">
<rect width="48" height="48" rx="14.4" fill="black"/>
<g clip-path="url(#clip0)">
<path fill-rule="evenodd" clip-rule="evenodd" d="M26.3651 8.09545V15.1032V22.1428L25.7854 20.5056L25.04 36.1775C25.7727 38.2543 26.1677 39.3628 26.174 39.3628L27.1041 39.4202C28.6395 39.4966 30.5443 39.6559 31.9841 39.8342C32.1946 39.8694 32.4077 39.8864 32.6212 39.8852C32.6212 39.8852 32.6212 32.6991 32.6212 23.9585V8.03174H26.3779L26.3651 8.09545Z" fill="#B1060F" stroke="black" stroke-width="0.23" stroke-miterlimit="10"/>
<path fill-rule="evenodd" clip-rule="evenodd" d="M15.0767 8.07666V24.0034C15.0767 32.7567 15.0767 39.9301 15.0767 39.9301C15.0767 39.9301 15.6373 39.8855 16.2744 39.8091L18.2747 39.6116C18.9628 39.5543 21.0205 39.4205 21.2626 39.4205C21.3327 39.4205 21.3327 39.0574 21.3454 32.6739V25.9337L21.8423 27.3416C21.9188 27.5646 21.9443 27.6283 22.0143 27.8449L22.7661 12.173L22.5049 11.4468C21.9315 9.7203 21.4155 8.25504 21.3709 8.19133V8.07666H15.0767Z" fill="#B1060F" stroke="black" stroke-width="0.23" stroke-miterlimit="10"/>
<path fill-rule="evenodd" clip-rule="evenodd" d="M15.0767 8.07666V16.9956L21.3709 33.6996V32.6739V25.9337L21.8678 27.3416C24.6391 35.184 26.1234 39.3886 26.1362 39.4014L27.0663 39.4587C28.6016 39.5352 30.5065 39.6944 31.9463 39.8728C32.1568 39.9079 32.3699 39.925 32.5833 39.9238C32.5833 39.9238 32.5833 36.4008 32.5833 31.438L26.3592 13.428V15.1354V22.175L25.7794 20.5377C25.2188 18.9451 24.8366 17.8748 22.5622 11.4468C21.9315 9.7203 21.4155 8.25504 21.3709 8.19133V8.07666H15.0767Z" fill="url(#paint0_radial)"/>
<path fill-rule="evenodd" clip-rule="evenodd" d="M15.0767 8.07666L21.3709 25.9465L21.8678 27.3544C24.6391 35.1967 26.1234 39.4014 26.1362 39.4141L27.0663 39.4714C28.6016 39.5479 30.5065 39.7072 31.9463 39.8855C32.1567 39.921 32.3699 39.9381 32.5833 39.9365L26.34 22.1686L25.7603 20.5314C25.1997 18.9387 24.8175 17.8684 22.5431 11.4404C21.9315 9.7203 21.4155 8.25504 21.3709 8.19133V8.07666H15.0767Z" fill="#E50914"/>
<path fill-rule="evenodd" clip-rule="evenodd" d="M26.3651 8.09545V15.1032V22.1428L25.7854 20.5056L25.04 36.1775C25.7727 38.2543 26.1677 39.3628 26.174 39.3628L27.1041 39.4202C28.6395 39.4966 30.5443 39.6559 31.9841 39.8342C32.1946 39.8694 32.4077 39.8864 32.6212 39.8852C32.6212 39.8852 32.6212 32.6991 32.6212 23.9585V8.03174H26.3779L26.3651 8.09545Z" fill="#B1060F" stroke="black" stroke-width="0.23" stroke-miterlimit="10"/>
<path fill-rule="evenodd" clip-rule="evenodd" d="M15.0767 8.07666V24.0034C15.0767 32.7567 15.0767 39.9301 15.0767 39.9301C15.0767 39.9301 15.6373 39.8855 16.2744 39.8091L18.2747 39.6116C18.9628 39.5543 21.0205 39.4205 21.2626 39.4205C21.3327 39.4205 21.3327 39.0574 21.3454 32.6739V25.9337L21.8423 27.3416C21.9188 27.5646 21.9443 27.6283 22.0143 27.8449L22.7661 12.173L22.5049 11.4468C21.9315 9.7203 21.4155 8.25504 21.3709 8.19133V8.07666H15.0767Z" fill="#B1060F" stroke="black" stroke-width="0.23" stroke-miterlimit="10"/>
<path fill-rule="evenodd" clip-rule="evenodd" d="M15.0767 8.07666V16.9956L21.3709 33.6996V32.6739V25.9337L21.8678 27.3416C24.6391 35.184 26.1234 39.3886 26.1362 39.4014L27.0663 39.4587C28.6016 39.5352 30.5065 39.6944 31.9463 39.8728C32.1568 39.9079 32.3699 39.925 32.5833 39.9238C32.5833 39.9238 32.5833 36.4008 32.5833 31.438L26.3592 13.428V15.1354V22.175L25.7794 20.5377C25.2188 18.9451 24.8366 17.8748 22.5622 11.4468C21.9315 9.7203 21.4155 8.25504 21.3709 8.19133V8.07666H15.0767Z" fill="url(#paint1_radial)"/>
<path fill-rule="evenodd" clip-rule="evenodd" d="M15.0767 8.07666L21.3709 25.9465L21.8678 27.3544C24.6391 35.1967 26.1234 39.4014 26.1362 39.4141L27.0663 39.4714C28.6016 39.5479 30.5065 39.7072 31.9463 39.8855C32.1567 39.921 32.3699 39.9381 32.5833 39.9365L26.34 22.1686L25.7603 20.5314C25.1997 18.9387 24.8175 17.8684 22.5431 11.4404C21.9315 9.7203 21.4155 8.25504 21.3709 8.19133V8.07666H15.0767Z" fill="#E50914"/>
</g>
<defs>
<radialGradient id="paint0_radial" cx="0" cy="0" r="1" gradientUnits="userSpaceOnUse" gradientTransform="translate(38.8799 37.9513) rotate(-18.4349) scale(3.99977 145.725)">
<stop/>
<stop offset="1" stop-opacity="0"/>
</radialGradient>
<radialGradient id="paint1_radial" cx="0" cy="0" r="1" gradientUnits="userSpaceOnUse" gradientTransform="translate(38.8799 37.9513) rotate(-18.4349) scale(3.99977 145.725)">
<stop/>
<stop offset="1" stop-opacity="0"/>
</radialGradient>
<clipPath id="clip0">
<rect width="17.6978" height="32" fill="white" transform="translate(15 8)"/>
</clipPath>
</defs>
</svg>
