<svg width="48" height="48" viewBox="0 0 48 48" fill="none" xmlns="http://www.w3.org/2000/svg">
<rect width="48" height="48" rx="14.4" fill="white"/>
<g clip-path="url(#clip0)">
<path fill-rule="evenodd" clip-rule="evenodd" d="M28.6929 8.07369L10.9295 9.38245C10.6549 9.38317 10.3836 9.44192 10.1334 9.55485C9.88316 9.66778 9.65962 9.83233 9.47744 10.0377C9.29526 10.2431 9.15856 10.4847 9.0763 10.7466C8.99404 11.0085 8.96809 11.2849 9.00013 11.5576V30.9677C9.0416 31.9356 9.41475 32.8598 10.057 33.5852L14.2352 38.9923C14.9233 39.8648 15.5439 40.0553 16.8527 39.9938L37.4794 38.7649C39.2244 38.642 39.7221 37.831 39.7221 36.4608V14.6052C39.7221 13.8986 39.4395 13.6958 38.6161 13.0937L38.4932 12.9892L32.8035 9.00764C31.4333 7.99996 30.8742 7.88322 28.6929 8.07369ZM17.3196 14.2488C15.6361 14.3594 15.2551 14.384 14.2966 13.6344L11.8634 11.6866C11.6176 11.4408 11.7405 11.1275 12.3673 11.0722L29.4425 9.84328C29.9306 9.77976 30.4266 9.81911 30.8986 9.9588C31.3705 10.0985 31.808 10.3354 32.1829 10.6543L35.1077 12.768C35.2367 12.8356 35.5439 13.2043 35.1691 13.2043L17.5408 14.2304L17.3196 14.2488ZM15.3534 36.2642V17.7142C15.3534 16.9093 15.6054 16.5345 16.355 16.4854L36.6315 15.3056C37.3196 15.2381 37.6269 15.6743 37.6269 16.4854V34.9185C37.6269 35.7296 37.504 36.4116 36.398 36.4731L16.9878 37.5668C15.8573 37.6282 15.3534 37.2534 15.3534 36.2642ZM34.4871 18.7096C34.61 19.2749 34.4871 19.8341 33.9279 19.8955L32.994 20.0798V33.7695C32.3314 34.167 31.5837 34.4008 30.8127 34.4516C29.8112 34.4516 29.5838 34.1443 28.8158 33.2227L22.7083 23.6374V32.897L24.6438 33.3333C24.6438 33.3333 24.6438 34.4516 23.0831 34.4516L18.782 34.7035C18.7157 34.5131 18.7238 34.3048 18.8048 34.1202C18.8857 33.9356 19.0334 33.7884 19.2183 33.7081L20.3427 33.3947V21.1367L18.782 21.0138C18.7432 20.8485 18.741 20.6768 18.7754 20.5105C18.8098 20.3443 18.8801 20.1876 18.9813 20.0513C19.0825 19.915 19.2122 19.8024 19.3614 19.7214C19.5105 19.6404 19.6756 19.5928 19.845 19.5821L24.4533 19.2749L30.8127 28.9769V20.3748L29.1906 20.1904C29.1661 20.043 29.1732 19.892 29.2114 19.7475C29.2495 19.603 29.3179 19.4683 29.4119 19.3521C29.506 19.236 29.6236 19.1411 29.7571 19.0738C29.8905 19.0065 30.0367 18.9682 30.186 18.9616L34.4871 18.7096Z" fill="black"/>
</g>
<defs>
<clipPath id="clip0">
<rect width="30.722" height="32" fill="white" transform="translate(9 8)"/>
</clipPath>
</defs>
</svg>
