<svg width="32" height="32" viewBox="0 0 32 32" fill="none" xmlns="http://www.w3.org/2000/svg">
<rect width="32" height="32" rx="9.6" fill="white"/>
<g clip-path="url(#clip0)">
<path fill-rule="evenodd" clip-rule="evenodd" d="M19.1266 5.04916L7.28611 5.92153C7.10311 5.92201 6.92228 5.96117 6.75548 6.03644C6.58868 6.11172 6.43968 6.2214 6.31824 6.35831C6.19681 6.49521 6.10569 6.65624 6.05086 6.83083C5.99603 7.00542 5.97873 7.18963 6.00009 7.37138V20.3094C6.02772 20.9546 6.27646 21.5707 6.70453 22.0542L9.48956 25.6583C9.94827 26.2399 10.3619 26.3669 11.2343 26.3259L24.9833 25.5068C26.1465 25.4249 26.4782 24.8843 26.4782 23.9709V9.40281C26.4782 8.93181 26.2898 8.79665 25.741 8.39528L25.6591 8.32566L21.8665 5.6717C20.9532 5.00001 20.5805 4.9222 19.1266 5.04916ZM11.5456 9.16526C10.4234 9.23898 10.1694 9.25536 9.53051 8.7557L7.90865 7.45739C7.74482 7.29356 7.82673 7.08468 8.24449 7.04782L19.6262 6.2287C19.9516 6.18636 20.2822 6.21259 20.5968 6.3057C20.9114 6.39881 21.203 6.55674 21.4529 6.76932L23.4024 8.17822C23.4884 8.22327 23.6932 8.469 23.4433 8.469L11.693 9.15297L11.5456 9.16526ZM10.235 23.8399V11.4752C10.235 10.9387 10.4029 10.6888 10.9025 10.6561L24.4181 9.86971C24.8768 9.82466 25.0816 10.1154 25.0816 10.6561V22.9429C25.0816 23.4836 24.9997 23.9382 24.2625 23.9791L11.3244 24.7081C10.5708 24.7491 10.235 24.4993 10.235 23.8399ZM22.9887 12.1387C23.0706 12.5155 22.9887 12.8882 22.616 12.9291L21.9935 13.052V22.177C21.5519 22.442 21.0534 22.5978 20.5395 22.6317C19.872 22.6317 19.7204 22.4269 19.2085 21.8125L15.1374 15.4234V21.5955L16.4275 21.8863C16.4275 21.8863 16.4275 22.6317 15.3873 22.6317L12.5203 22.7996C12.4761 22.6727 12.4815 22.5338 12.5355 22.4108C12.5894 22.2877 12.6879 22.1896 12.8111 22.1361L13.5606 21.9272V13.7565L12.5203 13.6745C12.4945 13.5644 12.493 13.4499 12.5159 13.3391C12.5389 13.2283 12.5857 13.1238 12.6532 13.033C12.7206 12.9421 12.8071 12.8671 12.9065 12.8131C13.0059 12.7591 13.1159 12.7274 13.2289 12.7203L16.3006 12.5155L20.5395 18.9825V13.2486L19.4583 13.1257C19.442 13.0275 19.4467 12.9268 19.4721 12.8305C19.4976 12.7342 19.5431 12.6444 19.6058 12.567C19.6685 12.4895 19.7469 12.4263 19.8359 12.3814C19.9248 12.3366 20.0223 12.311 20.1218 12.3066L22.9887 12.1387Z" fill="black"/>
</g>
<defs>
<clipPath id="clip0">
<rect width="20.4781" height="21.33" fill="white" transform="translate(6 5)"/>
</clipPath>
</defs>
</svg>
