<svg width="32" height="32" viewBox="0 0 32 32" fill="none" xmlns="http://www.w3.org/2000/svg">
<rect width="32" height="32" rx="9.6" fill="black"/>
<rect x="5.3335" y="5.33337" width="21.3333" height="21.3333" rx="10.6667" fill="#1ED760"/>
<path d="M20.9028 20.7158C20.7118 21.0341 20.3044 21.1232 19.9861 20.9323C17.4779 19.4044 14.3332 19.0607 10.6156 19.901C10.2591 19.9774 9.9026 19.7609 9.82621 19.4044C9.74982 19.048 9.96626 18.6915 10.3227 18.6151C14.3842 17.6857 17.8726 18.0804 20.6736 19.7991C20.9919 19.9901 21.0937 20.3975 20.9028 20.7158ZM22.2014 17.813C21.9595 18.2077 21.4502 18.3223 21.0556 18.0931C18.1909 16.3234 13.824 15.8141 10.4373 16.8454C9.99172 16.9727 9.53338 16.7308 9.40606 16.2979C9.27875 15.8523 9.52065 15.394 9.96626 15.2667C13.8367 14.0953 18.6493 14.6555 21.9468 16.6799C22.316 16.909 22.4433 17.4183 22.2014 17.813ZM22.316 14.7828C18.8784 12.7458 13.2128 12.5548 9.92806 13.5479C9.40606 13.7134 8.84587 13.4206 8.68036 12.8858C8.51485 12.3638 8.82041 11.8036 9.34241 11.6381C13.111 10.4923 19.375 10.7214 23.3218 13.0641C23.7929 13.3442 23.9456 13.9553 23.6655 14.4264C23.3982 14.9102 22.7871 15.0757 22.316 14.7828Z" fill="black"/>
</svg>
