<svg width="32" height="32" viewBox="0 0 32 32" fill="none" xmlns="http://www.w3.org/2000/svg">
<rect width="32" height="32" rx="9.6" fill="white"/>
<path d="M25.6479 17.4009H24.2438V15.6502H23.8928V17.4009H22.4886V13.025H23.8928V14.2497H24.9459L25.6479 14.95V17.4009V17.4009ZM22.1394 15.6502H20.7352V16.0012H22.1394V17.4018H20.0342L19.3322 16.7015V14.95L20.0342 14.2497H22.1394V15.6502L22.1394 15.6502ZM18.9817 15.6502H17.753V16.0012H18.9817V17.4018H17.052L16.35 16.7015V13.025H17.7541V14.2497H18.9827L18.9817 15.6502V15.6502ZM15.9995 13.8996H14.5953V13.025H15.9995V13.8996ZM15.9995 17.4009H14.5953V14.2497H15.9995V17.4009V17.4009ZM14.2443 17.4009H10.0349L9.33286 16.7006V14.2497H10.737V16.0003H11.088V14.2497H12.4921V16.0003H12.8432V14.2497H14.2473L14.2443 17.4009V17.4009ZM8.98235 15.6502H7.75515V16.0012H8.98376V17.4018H7.05309L6.35103 16.7015V13.025H7.75515V14.2497H8.98376L8.98236 15.6502H8.98235ZM25.1217 13.8996H24.2441V12.674H22.3186L21.4327 13.8996H19.8589L19.3323 14.4247V13.8996H18.1037V12.674H14.2452V13.8996H8.81562L7.93067 12.674H6V16.8758L8.45599 19.326H10.912V18.6257L11.614 19.326H16.3503V18.6257L17.0524 19.326H19.3325V18.6257L20.0346 19.326H24.4204L26 17.7502V14.7749L25.1217 13.8996Z" fill="#9147FE"/>
<path d="M22.4904 17.4009H23.8939V15.6502H24.2447V17.4009H25.6481V14.95L24.9464 14.2497H23.8939V13.0243H22.4904V17.4009ZM16.3505 16.7006L17.0521 17.4009H18.9819V16.0003H17.754V15.6502H18.9819V14.2497H17.754V13.0243H16.3505V16.7006L16.3505 16.7006ZM19.3327 16.7006L20.0344 17.4009H22.1396V16.0003H20.7362V15.6502H22.1396V14.2497H20.0344L19.3327 14.95V16.7006ZM14.5963 13.0243H15.9997V13.8996H14.5963V13.0243V13.0243ZM8.98256 14.2497H7.75449V13.0243H6.35107V16.7006L7.05278 17.4009H8.98256V16.0003H7.75449V15.6502H8.98257V14.2497H8.98256ZM9.33343 16.7006L10.035 17.4009H14.2454V14.2497H12.842V16.0003H12.4909V14.2497H11.0877V16.0003H10.7369V14.2497H9.33343V16.7006V16.7006ZM14.5963 14.2497H15.9997V17.4009H14.5963V14.2497" fill="white"/>
</svg>
