<svg width="48" height="48" viewBox="0 0 48 48" fill="none" xmlns="http://www.w3.org/2000/svg">
<rect width="48" height="48" rx="14.4" fill="white"/>
<path d="M38.4719 26.1015H36.3657V23.4753H35.8391V26.1015H33.733V19.5375H35.8391V21.3747H37.4188L38.4719 22.4251V26.1015V26.1015ZM33.209 23.4753H31.1029V24.0019H33.209V26.1028H30.0513L28.9982 25.0523V22.4251L30.0513 21.3747H33.209V23.4753L33.209 23.4753ZM28.4725 23.4753H26.6296V24.0019H28.4725V26.1028H25.5781L24.525 25.0523V19.5375H26.6311V21.3747H28.4741L28.4725 23.4753V23.4753ZM23.9992 20.8494H21.893V19.5375H23.9992V20.8494ZM23.9992 26.1015H21.893V21.3747H23.9992V26.1015V26.1015ZM21.3665 26.1015H15.0524L13.9993 25.051V21.3747H16.1055V24.0006H16.632V21.3747H18.7382V24.0006H19.2648V21.3747H21.3709L21.3665 26.1015V26.1015ZM13.4735 23.4753H11.6327V24.0019H13.4756V26.1028H10.5796L9.52654 25.0523V19.5375H11.6327V21.3747H13.4756L13.4735 23.4753H13.4735ZM37.6826 20.8494H36.3662V19.011H33.4778L32.1491 20.8494H29.7883L28.9985 21.6371V20.8494H27.1556V19.011H21.3678V20.8494H13.2234L11.896 19.011H9V25.3138L12.684 28.989H16.368V27.9386L17.4211 28.989H24.5255V27.9386L25.5786 28.989H28.9988V27.9386L30.0519 28.989H36.6305L39 26.6254V22.1624L37.6826 20.8494Z" fill="#9147FE"/>
<path d="M33.7354 26.1013H35.8405V23.4752H36.3668V26.1013H38.4719V22.425L37.4194 21.3745H35.8405V19.5364H33.7354V26.1013ZM24.5256 25.0509L25.5779 26.1013H28.4726V24.0004H26.6307V23.4752H28.4726V21.3745H26.6307V19.5364H24.5256V25.0509L24.5256 25.0509ZM28.9989 25.0509L30.0514 26.1014H33.2091V24.0004H31.104V23.4752H33.2091V21.3745H30.0514L28.9989 22.425V25.0509ZM21.8942 19.5364H23.9993V20.8493H21.8942V19.5364V19.5364ZM13.4736 21.3745H11.6315V19.5364H9.52637V25.0509L10.5789 26.1014H13.4736V24.0004H11.6315V23.4752H13.4736V21.3745H13.4736ZM13.9999 25.0509L15.0522 26.1014H21.3679V21.3745H19.2627V24.0004H18.7362V21.3745H16.6313V24.0004H16.105V21.3745H13.9999V25.0509V25.0509ZM21.8942 21.3745H23.9993V26.1014H21.8942V21.3745" fill="white"/>
</svg>
