<svg width="48" height="48" viewBox="0 0 48 48" fill="none" xmlns="http://www.w3.org/2000/svg">
<rect width="48" height="48" rx="14.4" fill="#107C10"/>
<path d="M25.7626 22.4892C25.7626 22.4892 25.7626 22.4957 25.7626 22.4892C25.1944 22.0114 24.6198 21.5143 23.9935 21.0171C23.3994 21.4949 22.8119 21.9856 22.2308 22.4828C18.1178 26.1115 12.8555 30.9219 12.9136 35.4158C15.7868 38.147 19.6932 39.8194 23.9935 39.8194C28.2873 39.8194 32.1807 38.147 35.054 35.4287C35.1121 30.9348 29.8692 26.1244 25.7626 22.4892Z" fill="white"/>
<path d="M34.9508 12.4746C32.4197 12.9589 29.8822 15.1929 28.494 17.046C28.4294 17.1493 28.3649 17.2527 28.3003 17.3624C29.4044 18.7054 31.8193 21.6433 33.7628 24.9492C35.4932 27.9 36.8427 31.1477 36.5521 33.8144C38.7151 31.1154 40.0065 27.7062 40.0065 24C40.0065 19.4544 38.0695 15.3608 34.9637 12.4746H34.9508Z" fill="white"/>
<path d="M19.6999 17.3559C19.6353 17.2525 19.5707 17.1492 19.5062 17.0459C18.1115 15.1993 15.574 12.9652 13.0364 12.481C9.9307 15.3607 7.99365 19.4543 7.99365 23.9999C7.99365 27.6932 9.2721 31.096 11.4222 33.7885C10.8024 28.1323 17.6014 19.8934 19.6999 17.3559Z" fill="white"/>
<path d="M24.0065 13.1397C25.8984 11.9646 28.9912 10.4408 32.3617 10.5441C32.381 10.5441 32.394 10.5441 32.394 10.5441H32.4198C29.9727 9.05258 27.08 8.18091 23.9936 8.18091C20.9718 8.18091 16.8911 9.98882 15.8258 10.4537C15.6773 10.5183 15.6321 10.5376 15.6191 10.5441C19.009 10.4473 22.1082 11.9711 24.0065 13.1397Z" fill="white"/>
</svg>
