<svg width="32" height="32" viewBox="0 0 32 32" fill="none" xmlns="http://www.w3.org/2000/svg">
<rect width="32" height="32" rx="9.6" fill="#107C10"/>
<path d="M17.1753 14.9928C17.1753 14.9928 17.1753 14.9971 17.1753 14.9928C16.7965 14.6743 16.4133 14.3428 15.9958 14.0114C15.5998 14.3299 15.2081 14.657 14.8207 14.9885C12.0787 17.4076 8.57046 20.6145 8.6092 23.6105C10.5247 25.4313 13.129 26.5462 15.9958 26.5462C18.8583 26.5462 21.454 25.4313 23.3695 23.6191C23.4082 20.6231 19.9129 17.4162 17.1753 14.9928Z" fill="white"/>
<path d="M23.3004 8.31653C21.613 8.63937 19.9213 10.1287 18.9958 11.3641C18.9528 11.433 18.9097 11.5019 18.8667 11.5751C19.6028 12.4704 21.2127 14.429 22.5083 16.6329C23.662 18.6001 24.5616 20.7653 24.3679 22.5431C25.8099 20.7438 26.6708 18.471 26.6708 16.0001C26.6708 12.9697 25.3795 10.2407 23.309 8.31653H23.3004Z" fill="white"/>
<path d="M13.1332 11.5706C13.0902 11.5017 13.0472 11.4329 13.0041 11.364C12.0743 10.1329 10.3826 8.64352 8.69095 8.32068C6.62047 10.2405 5.3291 12.9696 5.3291 16C5.3291 18.4622 6.1814 20.7307 7.61482 22.5257C7.20158 18.7549 11.7343 13.2623 13.1332 11.5706Z" fill="white"/>
<path d="M16.0042 8.75987C17.2654 7.97644 19.3273 6.96057 21.5743 7.02944C21.5872 7.02944 21.5958 7.02944 21.5958 7.02944H21.613C19.9816 6.03509 18.0532 5.45398 15.9956 5.45398C13.9811 5.45398 11.2606 6.65925 10.5503 6.96918C10.4513 7.01223 10.4212 7.02514 10.4126 7.02944C12.6725 6.96488 14.7387 7.98075 16.0042 8.75987Z" fill="white"/>
</svg>
