<svg width="217" height="217" viewBox="0 0 217 217" fill="none" xmlns="http://www.w3.org/2000/svg">
<rect width="217" height="217" rx="6" fill="black"/>
<g clip-path="url(#clip0)">
<path fill-rule="evenodd" clip-rule="evenodd" d="M116.31 84.179V97.3186V110.518L115.223 107.448L113.826 136.833C115.199 140.727 115.94 142.805 115.952 142.805L117.696 142.913C120.575 143.056 124.146 143.355 126.846 143.689C127.241 143.755 127.64 143.787 128.04 143.785C128.04 143.785 128.04 130.311 128.04 113.922V84.0596H116.334L116.31 84.179Z" fill="#B1060F" stroke="black" stroke-width="0.23" stroke-miterlimit="10"/>
<path fill-rule="evenodd" clip-rule="evenodd" d="M95.144 84.144V114.007C95.144 130.419 95.144 143.869 95.144 143.869C95.144 143.869 96.1952 143.786 97.3897 143.642L101.14 143.272C102.431 143.165 106.289 142.914 106.743 142.914C106.874 142.914 106.874 142.233 106.898 130.264V117.626L107.83 120.266C107.973 120.684 108.021 120.803 108.152 121.21L109.562 91.8247L109.072 90.463C107.997 87.2259 107.029 84.4785 106.946 84.3591V84.144H95.144Z" fill="#B1060F" stroke="black" stroke-width="0.23" stroke-miterlimit="10"/>
<path fill-rule="evenodd" clip-rule="evenodd" d="M95.144 84.144V100.867L106.946 132.187V130.264V117.626L107.877 120.266C113.074 134.97 115.857 142.854 115.881 142.878L117.625 142.985C120.503 143.129 124.075 143.427 126.775 143.762C127.169 143.828 127.569 143.86 127.969 143.857C127.969 143.857 127.969 137.252 127.969 127.947L116.299 94.1779V97.3792V110.578L115.212 107.509C114.161 104.522 113.444 102.516 109.179 90.463C107.997 87.2259 107.029 84.4785 106.946 84.3591V84.144H95.144Z" fill="url(#paint0_radial)"/>
<path fill-rule="evenodd" clip-rule="evenodd" d="M95.144 84.144L106.946 117.65L107.877 120.29C113.074 134.994 115.857 142.878 115.881 142.902L117.625 143.009C120.503 143.153 124.075 143.451 126.775 143.786C127.169 143.852 127.569 143.884 127.969 143.881L116.263 110.566L115.176 107.497C114.125 104.51 113.408 102.504 109.144 90.451C107.997 87.2259 107.029 84.4785 106.946 84.3591V84.144H95.144Z" fill="#E50914"/>
<path fill-rule="evenodd" clip-rule="evenodd" d="M116.31 84.179V97.3186V110.518L115.223 107.448L113.826 136.833C115.199 140.727 115.94 142.805 115.952 142.805L117.696 142.913C120.575 143.056 124.146 143.355 126.846 143.689C127.241 143.755 127.64 143.787 128.04 143.785C128.04 143.785 128.04 130.311 128.04 113.922V84.0596H116.334L116.31 84.179Z" fill="#B1060F" stroke="black" stroke-width="0.23" stroke-miterlimit="10"/>
<path fill-rule="evenodd" clip-rule="evenodd" d="M95.144 84.144V114.007C95.144 130.419 95.144 143.869 95.144 143.869C95.144 143.869 96.1952 143.786 97.3897 143.642L101.14 143.272C102.431 143.165 106.289 142.914 106.743 142.914C106.874 142.914 106.874 142.233 106.898 130.264V117.626L107.83 120.266C107.973 120.684 108.021 120.803 108.152 121.21L109.562 91.8247L109.072 90.463C107.997 87.2259 107.029 84.4785 106.946 84.3591V84.144H95.144Z" fill="#B1060F" stroke="black" stroke-width="0.23" stroke-miterlimit="10"/>
<path fill-rule="evenodd" clip-rule="evenodd" d="M95.144 84.144V100.867L106.946 132.187V130.264V117.626L107.877 120.266C113.074 134.97 115.857 142.854 115.881 142.878L117.625 142.985C120.503 143.129 124.075 143.427 126.775 143.762C127.169 143.828 127.569 143.86 127.969 143.857C127.969 143.857 127.969 137.252 127.969 127.947L116.299 94.1779V97.3792V110.578L115.212 107.509C114.161 104.522 113.444 102.516 109.179 90.463C107.997 87.2259 107.029 84.4785 106.946 84.3591V84.144H95.144Z" fill="url(#paint1_radial)"/>
<path fill-rule="evenodd" clip-rule="evenodd" d="M95.144 84.144L106.946 117.65L107.877 120.29C113.074 134.994 115.857 142.878 115.881 142.902L117.625 143.009C120.503 143.153 124.075 143.451 126.775 143.786C127.169 143.852 127.569 143.884 127.969 143.881L116.263 110.566L115.176 107.497C114.125 104.51 113.408 102.504 109.144 90.451C107.997 87.2259 107.029 84.4785 106.946 84.3591V84.144H95.144Z" fill="#E50914"/>
</g>
<defs>
<radialGradient id="paint0_radial" cx="0" cy="0" r="1" gradientUnits="userSpaceOnUse" gradientTransform="translate(139.775 140.159) rotate(-18.435) scale(7.49956 273.234)">
<stop/>
<stop offset="1" stop-opacity="0"/>
</radialGradient>
<radialGradient id="paint1_radial" cx="0" cy="0" r="1" gradientUnits="userSpaceOnUse" gradientTransform="translate(139.775 140.159) rotate(-18.435) scale(7.49956 273.234)">
<stop/>
<stop offset="1" stop-opacity="0"/>
</radialGradient>
<clipPath id="clip0">
<rect width="33.1834" height="60" fill="white" transform="translate(95 84)"/>
</clipPath>
</defs>
</svg>
