<svg width="217" height="217" viewBox="0 0 217 217" fill="none" xmlns="http://www.w3.org/2000/svg">
<rect x="0.583333" y="0.583333" width="215.833" height="215.833" rx="5.41667" fill="white" stroke="#C8C7CC" stroke-width="1.16667"/>
<g clip-path="url(#clip0)">
<path fill-rule="evenodd" clip-rule="evenodd" d="M116.46 77.1443L81.7676 79.7003C81.2315 79.7017 80.7016 79.8164 80.2129 80.037C79.7242 80.2575 79.2876 80.5789 78.9318 80.98C78.576 81.3812 78.3091 81.853 78.1484 82.3645C77.9877 82.8761 77.9371 83.4158 77.9996 83.9483V121.856C78.0806 123.747 78.8094 125.552 80.0636 126.968L88.2236 137.528C89.5676 139.232 90.7796 139.604 93.3356 139.484L133.62 137.084C137.028 136.844 138 135.26 138 132.584V89.9003C138 88.5203 137.448 88.1243 135.84 86.9483L135.6 86.7443L124.488 78.9683C121.812 77.0003 120.72 76.7723 116.46 77.1443ZM94.2476 89.2043C90.9596 89.4203 90.2156 89.4683 88.3436 88.0043L83.5916 84.2003C83.1116 83.7203 83.3516 83.1083 84.5756 83.0003L117.924 80.6003C118.877 80.4762 119.846 80.5531 120.767 80.8259C121.689 81.0987 122.543 81.5614 123.276 82.1843L128.988 86.3123C129.24 86.4443 129.84 87.1643 129.108 87.1643L94.6796 89.1683L94.2476 89.2043ZM90.4076 132.2V95.9723C90.4076 94.4003 90.8996 93.6683 92.3636 93.5723L131.964 91.2683C133.308 91.1363 133.908 91.9883 133.908 93.5723V129.572C133.908 131.156 133.668 132.488 131.508 132.608L93.5996 134.744C91.3916 134.864 90.4076 134.132 90.4076 132.2ZM127.776 97.9163C128.016 99.0203 127.776 100.112 126.684 100.232L124.86 100.592V127.328C123.566 128.105 122.105 128.561 120.6 128.66C118.644 128.66 118.2 128.06 116.7 126.26L104.772 107.54V125.624L108.552 126.476C108.552 126.476 108.552 128.66 105.504 128.66L97.1036 129.152C96.9742 128.781 96.99 128.374 97.1481 128.013C97.3061 127.653 97.5946 127.365 97.9556 127.208L100.152 126.596V102.656L97.1036 102.416C97.0279 102.094 97.0236 101.758 97.0908 101.433C97.158 101.109 97.2952 100.803 97.4928 100.537C97.6905 100.27 97.9438 100.051 98.2351 99.8923C98.5264 99.734 98.8488 99.6412 99.1796 99.6203L108.18 99.0203L120.6 117.968V101.168L117.432 100.808C117.384 100.52 117.398 100.226 117.472 99.9433C117.547 99.6611 117.68 99.3979 117.864 99.1711C118.048 98.9443 118.277 98.759 118.538 98.6275C118.799 98.496 119.084 98.4213 119.376 98.4083L127.776 97.9163Z" fill="black"/>
</g>
<defs>
<clipPath id="clip0">
<rect width="60" height="62.496" fill="white" transform="translate(78 77)"/>
</clipPath>
</defs>
</svg>
