<svg width="217" height="217" viewBox="0 0 217 217" fill="none" xmlns="http://www.w3.org/2000/svg">
<rect width="217" height="217" rx="6" fill="black"/>
<g clip-path="url(#clip0)">
<path d="M109.334 79.3335C103.4 79.3335 97.5999 81.093 92.6664 84.3894C87.7329 87.6859 83.8878 92.3712 81.6171 97.853C79.3465 103.335 78.7524 109.367 79.91 115.186C81.0675 121.006 83.9247 126.351 88.1203 130.547C92.3159 134.742 97.6614 137.599 103.481 138.757C109.3 139.915 115.332 139.321 120.814 137.05C126.296 134.779 130.981 130.934 134.278 126.001C137.574 121.067 139.334 115.267 139.334 109.333C139.334 101.377 136.173 93.7464 130.547 88.1203C124.921 82.4942 117.29 79.3335 109.334 79.3335V79.3335ZM123.086 122.605C122.958 122.815 122.79 122.997 122.591 123.141C122.393 123.286 122.168 123.389 121.929 123.446C121.69 123.503 121.443 123.512 121.2 123.473C120.958 123.434 120.726 123.347 120.518 123.217C113.474 118.921 104.606 117.949 94.1175 120.325C93.8662 120.429 93.5955 120.476 93.3242 120.464C93.0528 120.452 92.7873 120.381 92.546 120.256C92.3048 120.132 92.0936 119.956 91.9271 119.741C91.7606 119.526 91.6428 119.278 91.582 119.013C91.5211 118.749 91.5185 118.474 91.5745 118.208C91.6305 117.942 91.7436 117.692 91.9061 117.474C92.0686 117.256 92.2764 117.077 92.5153 116.947C92.7542 116.818 93.0184 116.742 93.2895 116.725C104.762 114.133 114.566 115.201 122.534 120.025C122.947 120.296 123.238 120.718 123.341 121.202C123.445 121.685 123.353 122.19 123.086 122.605V122.605ZM126.758 114.433C126.598 114.696 126.387 114.924 126.139 115.105C125.89 115.286 125.609 115.416 125.31 115.488C125.011 115.559 124.7 115.57 124.397 115.521C124.093 115.472 123.803 115.364 123.542 115.201C115.478 110.245 103.142 108.817 93.6495 111.709C93.3521 111.812 93.0371 111.853 92.7234 111.83C92.4098 111.808 92.1038 111.723 91.8239 111.579C91.5439 111.436 91.2957 111.238 91.0941 110.996C90.8925 110.755 90.7416 110.476 90.6504 110.175C90.5592 109.874 90.5297 109.557 90.5634 109.245C90.5972 108.932 90.6937 108.63 90.8471 108.355C91.0004 108.08 91.2076 107.84 91.4561 107.647C91.7046 107.454 91.9894 107.314 92.2935 107.233C103.19 103.921 116.738 105.529 125.99 111.217C126.252 111.377 126.48 111.588 126.661 111.836C126.842 112.085 126.972 112.366 127.044 112.665C127.115 112.964 127.127 113.275 127.077 113.578C127.028 113.882 126.92 114.172 126.758 114.433ZM130.934 104.917C130.747 105.235 130.499 105.512 130.205 105.734C129.91 105.955 129.575 106.116 129.218 106.208C128.861 106.299 128.49 106.319 128.125 106.267C127.761 106.214 127.41 106.09 127.094 105.901V105.901C117.422 100.153 101.474 99.6255 92.2935 102.421C91.9413 102.528 91.5716 102.564 91.2055 102.527C90.8394 102.491 90.4841 102.383 90.1598 102.209C89.8355 102.035 89.5487 101.799 89.3156 101.514C89.0826 101.23 88.9079 100.902 88.8015 100.549C88.6951 100.197 88.6592 99.8276 88.6957 99.4615C88.7322 99.0954 88.8405 98.7401 89.0143 98.4158C89.1881 98.0915 89.4241 97.8047 89.7088 97.5716C89.9935 97.3386 90.3213 97.1639 90.6735 97.0575C101.27 93.8415 118.886 94.4655 130.01 101.065C130.641 101.455 131.093 102.079 131.266 102.801C131.44 103.523 131.32 104.284 130.934 104.917V104.917Z" fill="#1ED760"/>
</g>
<defs>
<clipPath id="clip0">
<rect width="60" height="60" fill="white" transform="translate(79.3335 79.3335)"/>
</clipPath>
</defs>
</svg>
