<svg width="217" height="217" viewBox="0 0 217 217" fill="none" xmlns="http://www.w3.org/2000/svg">
<rect width="217" height="217" rx="6" fill="black"/>
<g clip-path="url(#clip0)">
<rect width="60" height="41.988" transform="translate(79.3335 88.6665)" fill="black"/>
<path d="M109.333 88.6665C109.333 88.6665 90.5655 88.6665 85.8615 89.8665C84.5904 90.2335 83.434 90.9188 82.5017 91.8574C81.5694 92.796 80.8919 93.957 80.5335 95.2305C79.3335 99.9345 79.3335 109.631 79.3335 109.631C79.3335 109.631 79.3335 119.411 80.5335 124.031C80.8851 125.297 81.5583 126.451 82.4877 127.38C83.4171 128.31 84.571 128.983 85.8375 129.335C90.6015 130.667 109.333 130.667 109.333 130.667C109.333 130.667 128.126 130.667 132.83 129.467C134.106 129.128 135.271 128.457 136.203 127.52C137.135 126.584 137.801 125.417 138.133 124.139C139.333 119.459 139.333 109.739 139.333 109.739C139.333 109.739 139.333 99.9585 138.133 95.2545C137.797 93.9903 137.133 92.8373 136.208 91.9123C135.283 90.9873 134.13 90.3229 132.865 89.9865C128.101 88.6665 109.333 88.6665 109.333 88.6665ZM103.333 100.667L118.933 109.667L103.333 118.667V100.667Z" fill="#FF0000"/>
<path d="M103.333 118.667V100.667L118.933 109.667L103.333 118.667Z" fill="white"/>
</g>
<defs>
<clipPath id="clip0">
<rect width="60" height="41.988" fill="white" transform="translate(79.3335 88.6665)"/>
</clipPath>
</defs>
</svg>
