<svg width="36" height="36" viewBox="0 0 36 36" fill="none" xmlns="http://www.w3.org/2000/svg">
<path d="M8.05566 18.0068C8.05566 18.231 8.14697 18.4385 8.32959 18.6045L15.5098 25.793C15.6924 25.959 15.875 26.042 16.0908 26.042C16.5474 26.042 16.8877 25.71 16.8877 25.2617C16.8877 25.0459 16.813 24.8301 16.6719 24.6807L13.7583 21.7422L10.4297 18.6709L12.9614 18.812H27.1475C27.6123 18.812 27.9443 18.4717 27.9443 18.0068C27.9443 17.5337 27.6123 17.2017 27.1475 17.2017H12.9614L10.438 17.3345L13.7583 14.2715L16.6719 11.3247C16.813 11.1753 16.8877 10.9678 16.8877 10.752C16.8877 10.3037 16.5474 9.97168 16.0908 9.97168C15.875 9.97168 15.6758 10.0464 15.46 10.2622L8.32959 17.4009C8.14697 17.5752 8.05566 17.7827 8.05566 18.0068Z" fill="#666666"/>
</svg>
