<svg width="24" height="24" viewBox="0 0 24 24" fill="none" xmlns="http://www.w3.org/2000/svg">
<path d="M7.33005 11.53H10.19C10.373 11.5538 10.559 11.5347 10.7333 11.4743C10.9076 11.414 11.0655 11.3138 11.1945 11.1819C11.3235 11.05 11.4201 10.89 11.4766 10.7143C11.5331 10.5387 11.548 10.3523 11.52 10.17V7.35996C11.548 7.17759 11.5331 6.99122 11.4766 6.81559C11.4201 6.63996 11.3235 6.47987 11.1945 6.34797C11.0655 6.21607 10.9076 6.11596 10.7333 6.05556C10.559 5.99517 10.373 5.97613 10.19 5.99996H7.33005C7.1471 5.97613 6.96112 5.99517 6.78679 6.05556C6.61246 6.11596 6.45457 6.21607 6.32557 6.34797C6.19658 6.47987 6.10002 6.63996 6.04353 6.81559C5.98703 6.99122 5.97215 7.17759 6.00005 7.35996V10.17C5.97215 10.3523 5.98703 10.5387 6.04353 10.7143C6.10002 10.89 6.19658 11.05 6.32557 11.1819C6.45457 11.3138 6.61246 11.414 6.78679 11.4743C6.96112 11.5347 7.1471 11.5538 7.33005 11.53ZM7.33005 18.1H10.19C10.373 18.1238 10.559 18.1047 10.7333 18.0443C10.9076 17.9839 11.0655 17.8838 11.1945 17.7519C11.3235 17.62 11.4201 17.4599 11.4766 17.2843C11.5331 17.1087 11.548 16.9223 11.52 16.74V13.94C11.5501 13.7572 11.5368 13.5699 11.4811 13.3933C11.4254 13.2167 11.3289 13.0557 11.1994 12.9232C11.0699 12.7908 10.911 12.6908 10.7357 12.6311C10.5603 12.5715 10.3734 12.554 10.19 12.58H7.33005C7.14668 12.554 6.95976 12.5715 6.78441 12.6311C6.60907 12.6908 6.45023 12.7908 6.32074 12.9232C6.19124 13.0557 6.09474 13.2167 6.03903 13.3933C5.98332 13.5699 5.96996 13.7572 6.00005 13.94V16.74C5.97215 16.9223 5.98703 17.1087 6.04353 17.2843C6.10002 17.4599 6.19658 17.62 6.32557 17.7519C6.45457 17.8838 6.61246 17.9839 6.78679 18.0443C6.96112 18.1047 7.1471 18.1238 7.33005 18.1V18.1ZM13.9 18.1H16.77C16.9527 18.1242 17.1384 18.1054 17.3124 18.045C17.4865 17.9846 17.6439 17.8843 17.7722 17.7521C17.9005 17.6199 17.9961 17.4595 18.0513 17.2837C18.1065 17.108 18.1198 16.9218 18.09 16.74V13.94C18.09 13.02 17.65 12.58 16.77 12.58H13.9C13.7167 12.554 13.5298 12.5715 13.3544 12.6311C13.1791 12.6908 13.0202 12.7908 12.8907 12.9232C12.7612 13.0557 12.6647 13.2167 12.609 13.3933C12.5533 13.5699 12.54 13.7572 12.57 13.94V16.74C12.5421 16.9223 12.557 17.1087 12.6135 17.2843C12.67 17.4599 12.7666 17.62 12.8956 17.7519C13.0246 17.8838 13.1825 17.9839 13.3568 18.0443C13.5311 18.1047 13.7171 18.1238 13.9 18.1V18.1Z" fill="#666666"/>
<path d="M16.7701 11.53H13.9001C13.7171 11.5539 13.5312 11.5348 13.3568 11.4744C13.1825 11.414 13.0246 11.3139 12.8956 11.182C12.7666 11.0501 12.6701 10.89 12.6136 10.7144C12.5571 10.5388 12.5422 10.3524 12.5701 10.17V7.36003C12.5422 7.17766 12.5571 6.9913 12.6136 6.81567C12.6701 6.64004 12.7666 6.47995 12.8956 6.34804C13.0246 6.21614 13.1825 6.11604 13.3568 6.05564C13.5312 5.99524 13.7171 5.9762 13.9001 6.00003H16.7701C16.9527 5.97576 17.1384 5.99459 17.3125 6.05499C17.4865 6.1154 17.644 6.21572 17.7723 6.34791C17.9006 6.48009 17.9961 6.64049 18.0513 6.81624C18.1065 6.99199 18.1198 7.17823 18.0901 7.36003V10.17C18.1198 10.3518 18.1065 10.5381 18.0513 10.7138C17.9961 10.8896 17.9006 11.05 17.7723 11.1822C17.644 11.3143 17.4865 11.4147 17.3125 11.4751C17.1384 11.5355 16.9527 11.5543 16.7701 11.53V11.53Z" fill="#666666"/>
</svg>
