<svg width="24" height="24" viewBox="0 0 24 24" fill="none" xmlns="http://www.w3.org/2000/svg">
<path d="M11.9917 18.7056C15.6523 18.7056 18.6987 15.6675 18.6987 12.0068C18.6987 8.34619 15.644 5.30811 11.9834 5.30811C8.33105 5.30811 5.29297 8.34619 5.29297 12.0068C5.29297 15.6675 8.33936 18.7056 11.9917 18.7056ZM11.9917 17.4438C8.97852 17.4438 6.57129 15.0283 6.57129 12.0068C6.57129 8.98535 8.97021 6.56982 11.9834 6.56982C15.0049 6.56982 17.4204 8.98535 17.4287 12.0068C17.437 15.0283 15.0132 17.4438 11.9917 17.4438ZM11.8589 13.3682C12.2324 13.3682 12.4565 13.1357 12.4565 12.8452V12.8037C12.4565 12.4468 12.6724 12.2227 13.1123 11.9321C13.7266 11.5337 14.2246 11.1519 14.2246 10.3384C14.2246 9.18457 13.2036 8.60352 12.0747 8.60352C10.9292 8.60352 10.1738 9.11816 9.97461 9.69092C9.93311 9.80713 9.9082 9.92334 9.9082 10.0396C9.9082 10.3633 10.1738 10.5459 10.4146 10.5459C10.8379 10.5459 10.896 10.3218 11.145 10.0479C11.394 9.74902 11.668 9.60791 12.0249 9.60791C12.5728 9.60791 12.9297 9.91504 12.9297 10.3882C12.9297 10.8281 12.6475 11.0273 12.0913 11.4092C11.6431 11.7246 11.2612 12.0732 11.2612 12.7373V12.7788C11.2612 13.1689 11.4688 13.3682 11.8589 13.3682ZM11.8423 15.3604C12.2407 15.3604 12.5977 15.0366 12.5977 14.6299C12.5977 14.2148 12.249 13.8994 11.8423 13.8994C11.4272 13.8994 11.0786 14.2231 11.0786 14.6299C11.0786 15.0283 11.4355 15.3604 11.8423 15.3604Z" fill="#666666"/>
</svg>
