<svg width="40" height="40" viewBox="0 0 40 40" fill="none" xmlns="http://www.w3.org/2000/svg">
<circle cx="20" cy="20" r="20" fill="#F7F7F7"/>
<path d="M24.9224 26.0581H26.8481C27.7861 26.0581 28.2676 25.6016 28.2676 24.7217V15.3086C28.2676 14.4287 27.7861 13.9805 26.8481 13.9805H24.9224C23.9927 13.9805 23.5112 14.4287 23.5112 15.3086V24.7217C23.5112 25.6016 23.9927 26.0581 24.9224 26.0581ZM19.0371 26.0581H20.9629C21.9009 26.0581 22.3823 25.6016 22.3823 24.7217V17.2178C22.3823 16.3379 21.9009 15.8813 20.9629 15.8813H19.0371C18.1074 15.8813 17.6177 16.3379 17.6177 17.2178V24.7217C17.6177 25.6016 18.1074 26.0581 19.0371 26.0581ZM13.1436 26.0581H15.0693C16.0073 26.0581 16.4888 25.6016 16.4888 24.7217V19.1187C16.4888 18.2388 16.0073 17.7905 15.0693 17.7905H13.1436C12.2139 17.7905 11.7324 18.2388 11.7324 19.1187V24.7217C11.7324 25.6016 12.2139 26.0581 13.1436 26.0581Z" fill="#5C12A6"/>
</svg>
