<svg width="24" height="24" viewBox="0 0 24 24" fill="none" xmlns="http://www.w3.org/2000/svg">
<path d="M12 18.3818C12.1577 18.3818 12.2988 18.3652 12.4731 18.3569L12.855 19.0874C12.9297 19.2451 13.0957 19.3198 13.27 19.2949C13.436 19.2617 13.5688 19.1289 13.5938 18.9546L13.71 18.1411C14.0088 18.0581 14.3076 17.9419 14.6064 17.8174L15.2041 18.3652C15.3369 18.4814 15.5112 18.5063 15.6772 18.415C15.8267 18.332 15.8848 18.1577 15.8599 17.9834L15.6855 17.1782C15.9346 17.0039 16.1919 16.8047 16.416 16.5806L17.1714 16.8877C17.3374 16.9624 17.5117 16.9209 17.6362 16.7715C17.7441 16.647 17.7607 16.4644 17.6611 16.3149L17.2295 15.6177C17.4121 15.3604 17.5532 15.0781 17.6943 14.7876L18.5161 14.8291C18.6904 14.8374 18.8481 14.7295 18.9062 14.5635C18.9644 14.3975 18.9062 14.2231 18.7734 14.1152L18.126 13.6089C18.209 13.3101 18.2754 12.9946 18.3003 12.6709L19.0723 12.4219C19.2466 12.3638 19.3545 12.2227 19.3545 12.0483C19.3545 11.8657 19.2466 11.7246 19.0723 11.6665L18.3003 11.4258C18.2754 11.0938 18.209 10.7866 18.126 10.4795L18.7734 9.97314C18.9062 9.86523 18.9644 9.69922 18.9062 9.5332C18.8481 9.36719 18.6904 9.26758 18.5161 9.27588L17.6943 9.30908C17.5532 9.01025 17.4121 8.73633 17.2295 8.479L17.6611 7.78174C17.7524 7.64062 17.7441 7.44971 17.6362 7.3335C17.5117 7.18408 17.3374 7.14258 17.1714 7.20898L16.416 7.50781C16.1919 7.30029 15.9346 7.08447 15.6855 6.91016L15.8599 6.11328C15.8848 5.93066 15.8267 5.76465 15.6772 5.68164C15.5112 5.59033 15.3369 5.60693 15.2041 5.73975L14.6064 6.271C14.3076 6.14648 14.0088 6.03857 13.71 5.94727L13.5938 5.14209C13.5688 4.96777 13.436 4.83496 13.27 4.80176C13.0957 4.77686 12.9297 4.85986 12.855 5.00098L12.4731 5.73975C12.2988 5.73145 12.1577 5.72314 12 5.72314C11.8257 5.72314 11.6846 5.73145 11.5186 5.73975L11.1284 5.00098C11.0537 4.85986 10.896 4.77686 10.7134 4.80176C10.5474 4.83496 10.4229 4.96777 10.3979 5.14209L10.2817 5.94727C9.97461 6.03857 9.67578 6.14648 9.38525 6.271L8.7793 5.73975C8.64648 5.60693 8.47217 5.59033 8.30615 5.68164C8.16504 5.76465 8.09863 5.93066 8.13184 6.11328L8.29785 6.91016C8.04883 7.08447 7.7915 7.30029 7.56738 7.50781L6.82031 7.20898C6.646 7.14258 6.47998 7.18408 6.35547 7.3335C6.24756 7.44971 6.23096 7.64062 6.32227 7.77344L6.75391 8.479C6.57959 8.73633 6.43018 9.01025 6.28906 9.30908L5.46729 9.27588C5.29297 9.26758 5.13525 9.36719 5.07715 9.5332C5.02734 9.69922 5.07715 9.86523 5.21826 9.97314L5.85742 10.4795C5.78271 10.7866 5.71631 11.0938 5.69141 11.4258L4.91113 11.6665C4.74512 11.7246 4.63721 11.8657 4.63721 12.0483C4.63721 12.2227 4.74512 12.3638 4.91113 12.4219L5.69141 12.6709C5.71631 12.9946 5.78271 13.3101 5.85742 13.6089L5.21826 14.1152C5.07715 14.2231 5.02734 14.3975 5.07715 14.5635C5.13525 14.7295 5.29297 14.8374 5.46729 14.8291L6.28906 14.7876C6.43018 15.0781 6.57959 15.3604 6.75391 15.6177L6.32227 16.3149C6.23096 16.4644 6.24756 16.647 6.35547 16.7715C6.47998 16.9209 6.646 16.9624 6.82031 16.8877L7.56738 16.5806C7.7915 16.8047 8.04883 17.0039 8.29785 17.1782L8.13184 17.9834C8.09863 18.1577 8.16504 18.332 8.30615 18.415C8.47217 18.5063 8.64648 18.4814 8.7793 18.3652L9.38525 17.8174C9.67578 17.9419 9.97461 18.0581 10.2817 18.1411L10.3979 18.9546C10.4229 19.1289 10.5474 19.2617 10.7134 19.2949C10.896 19.3198 11.0537 19.2451 11.1284 19.0874L11.5186 18.3569C11.6846 18.3652 11.8257 18.3818 12 18.3818ZM13.6768 11.5835C13.3281 10.7368 12.7305 10.2969 11.9751 10.2969C11.8755 10.2969 11.7593 10.3052 11.5352 10.355L9.77539 7.3418C10.4395 7.02637 11.1948 6.84375 12 6.84375C14.7393 6.84375 16.8892 8.91064 17.1216 11.5835H13.6768ZM6.85352 12.0566C6.85352 10.3135 7.66699 8.78613 8.93701 7.83984L10.7217 10.8696C10.373 11.2598 10.2153 11.6582 10.2153 12.0732C10.2153 12.4634 10.3564 12.8369 10.7134 13.2437L8.88721 16.2153C7.64209 15.269 6.85352 13.7583 6.85352 12.0566ZM11.2529 12.0649C11.2529 11.6499 11.6016 11.3345 11.9917 11.3345C12.4067 11.3345 12.7471 11.6499 12.7471 12.0649C12.7471 12.4717 12.4067 12.8037 11.9917 12.8037C11.6016 12.8037 11.2529 12.4717 11.2529 12.0649ZM12 17.2529C11.1699 17.2529 10.3979 17.062 9.70898 16.73L11.5269 13.7749C11.7344 13.8247 11.8672 13.833 11.9751 13.833C12.7305 13.833 13.3364 13.3931 13.6768 12.5298H17.1133C16.8892 15.186 14.7393 17.2529 12 17.2529Z" fill="#666666"/>
</svg>
