<svg width="24" height="24" viewBox="0 0 24 24" fill="none" xmlns="http://www.w3.org/2000/svg">
<path d="M8.06543 19.0127H11.3857C11.0039 18.6807 10.6802 18.2739 10.4478 17.8174H8.13184C7.50928 17.8174 7.17725 17.4937 7.17725 16.896V7.15088C7.17725 6.55322 7.50098 6.21289 8.13184 6.21289H14.8887C15.4863 6.21289 15.835 6.55322 15.835 7.15088V12.4219C16.2915 12.6543 16.6982 12.9697 17.0386 13.3599V7.13428C17.0386 5.71484 16.3413 5.01758 14.9468 5.01758H8.06543C6.6709 5.01758 5.98193 5.72314 5.98193 7.13428V16.896C5.98193 18.3154 6.6709 19.0127 8.06543 19.0127ZM9.10303 8.87744H13.9258C14.1831 8.87744 14.374 8.67822 14.374 8.4209C14.374 8.17188 14.1831 7.98096 13.9258 7.98096H9.10303C8.8374 7.98096 8.64648 8.17188 8.64648 8.4209C8.64648 8.67822 8.8374 8.87744 9.10303 8.87744ZM9.10303 11.1353H13.9258C14.1831 11.1353 14.374 10.936 14.374 10.6787C14.374 10.4297 14.1831 10.2388 13.9258 10.2388H9.10303C8.8374 10.2388 8.64648 10.4297 8.64648 10.6787C8.64648 10.936 8.8374 11.1353 9.10303 11.1353ZM14.0005 19.0127C14.5898 19.0127 15.146 18.8384 15.6108 18.5479L17.0635 19.9922C17.2295 20.1665 17.3955 20.2246 17.5947 20.2246C17.9268 20.2246 18.1841 19.9673 18.1841 19.5854C18.1841 19.436 18.1011 19.27 17.9849 19.1455L16.5156 17.6763C16.8394 17.1948 17.0386 16.6055 17.0386 15.9746C17.0386 14.2896 15.6772 12.9365 14.0005 12.9365C12.3237 12.9365 10.9541 14.3062 10.9541 15.9746C10.9541 17.6514 12.3237 19.0127 14.0005 19.0127ZM14.0005 17.9585C12.9048 17.9585 12.0083 17.0703 12.0083 15.9746C12.0083 14.8955 12.9048 13.999 14.0005 13.999C15.0713 13.999 15.9678 14.8955 15.9678 15.9746C15.9678 17.0703 15.0796 17.9585 14.0005 17.9585Z" fill="#666666"/>
</svg>
