<svg width="24" height="24" viewBox="0 0 24 24" fill="none" xmlns="http://www.w3.org/2000/svg">
<path d="M12 9.27588C13.1372 9.27588 14.0835 8.32959 14.0835 7.19238C14.0835 6.03857 13.1372 5.10059 12 5.10889C10.8628 5.11719 9.9165 6.03857 9.9165 7.19238C9.9165 8.32959 10.8628 9.27588 12 9.27588ZM17.0635 9.27588C18.209 9.27588 19.147 8.32959 19.147 7.19238C19.147 6.03857 18.209 5.10059 17.0635 5.10889C15.9263 5.11719 14.9883 6.03857 14.9883 7.19238C14.9883 8.32959 15.9263 9.27588 17.0635 9.27588ZM6.93652 9.26758C8.07373 9.26758 9.01172 8.32959 9.01172 7.20068C9.01172 6.06348 8.07373 5.11719 6.93652 5.11719C5.79102 5.11719 4.85303 6.06348 4.85303 7.20068C4.85303 8.32959 5.79102 9.26758 6.93652 9.26758ZM12 14.0986C13.1372 14.0986 14.0835 13.1523 14.0835 12.0151C14.0835 10.8779 13.1372 9.93164 12 9.93994C10.8628 9.94824 9.9165 10.8779 9.9165 12.0151C9.9165 13.1523 10.8628 14.0986 12 14.0986ZM17.0635 14.0986C18.209 14.0986 19.147 13.1523 19.147 12.0151C19.147 10.8779 18.209 9.93164 17.0635 9.93994C15.9263 9.94824 14.9883 10.8779 14.9883 12.0151C14.9883 13.1523 15.9263 14.0986 17.0635 14.0986ZM6.93652 14.0986C8.07373 14.0986 9.01172 13.1523 9.01172 12.0151C9.01172 10.8779 8.07373 9.93164 6.93652 9.93994C5.79102 9.94824 4.85303 10.8779 4.85303 12.0151C4.85303 13.1523 5.79102 14.0986 6.93652 14.0986ZM6.93652 18.9297C8.07373 18.9297 9.01172 17.9751 9.01172 16.8379C9.01172 15.6924 8.07373 14.7627 6.93652 14.7627C5.79102 14.7627 4.85303 15.6924 4.85303 16.8379C4.85303 17.9751 5.79102 18.9297 6.93652 18.9297ZM12 18.9297C13.1372 18.9297 14.0835 17.9751 14.0835 16.8379C14.0835 15.6924 13.1372 14.7627 12 14.7627C10.8628 14.7627 9.9165 15.6924 9.9165 16.8379C9.9165 17.9751 10.8628 18.9297 12 18.9297ZM17.0635 18.9297C18.209 18.9297 19.147 17.9751 19.147 16.8379C19.147 15.6924 18.209 14.7627 17.0635 14.7627C15.9263 14.7627 14.9883 15.6924 14.9883 16.8379C14.9883 17.9751 15.9263 18.9297 17.0635 18.9297Z" fill="#161616"/>
</svg>
