<svg width="24" height="24" viewBox="0 0 24 24" fill="none" xmlns="http://www.w3.org/2000/svg">
<path d="M18.8101 15V8.68996C18.9467 8.6867 19.0825 8.7136 19.2075 8.76877C19.3326 8.82394 19.444 8.906 19.5338 9.00913C19.6235 9.11226 19.6895 9.2339 19.7268 9.36541C19.7642 9.49691 19.7721 9.63504 19.7501 9.76996V13.87C19.7501 14.56 19.4401 14.91 18.8101 15Z" fill="#666666"/>
<path d="M16.9199 16.09V7.48999C17.0647 7.49724 17.2065 7.53412 17.3364 7.59834C17.4664 7.66256 17.5818 7.75275 17.6756 7.86335C17.7693 7.97395 17.8393 8.1026 17.8814 8.24134C17.9234 8.38008 17.9365 8.52597 17.9199 8.66999V14.91C17.9365 15.054 17.9234 15.1999 17.8814 15.3386C17.8393 15.4774 17.7693 15.606 17.6756 15.7166C17.5818 15.8272 17.4664 15.9174 17.3364 15.9816C17.2065 16.0459 17.0647 16.0827 16.9199 16.09V16.09Z" fill="#666666"/>
<path d="M4.25003 15.87V8.18996C4.20736 7.90522 4.23138 7.61448 4.32019 7.3406C4.409 7.06673 4.56017 6.81722 4.76181 6.6117C4.96344 6.40619 5.21004 6.25029 5.48217 6.15628C5.7543 6.06228 6.04453 6.03272 6.33003 6.06996H13.83C14.1163 6.03101 14.4077 6.05928 14.6811 6.15253C14.9545 6.24578 15.2025 6.40143 15.4053 6.60717C15.6081 6.8129 15.7602 7.06304 15.8496 7.33778C15.9389 7.61251 15.963 7.90428 15.92 8.18996V15.63C15.9613 15.9149 15.9359 16.2055 15.8458 16.4789C15.7557 16.7524 15.6033 17.0011 15.4007 17.2057C15.1981 17.4102 14.9508 17.5649 14.6782 17.6576C14.4057 17.7504 14.1153 17.7785 13.83 17.74H6.33003C4.94003 17.74 4.25003 17.05 4.25003 15.87Z" fill="#666666"/>
</svg>
