<svg width="24" height="24" viewBox="0 0 24 24" fill="none" xmlns="http://www.w3.org/2000/svg">
<path d="M7.60889 18.0664H16.3911C17.8105 18.0664 18.5078 17.3691 18.5078 15.9746V8.05566C18.5078 6.66113 17.8105 5.96387 16.3911 5.96387H7.60889C6.19775 5.96387 5.49219 6.66113 5.49219 8.05566V15.9746C5.49219 17.3691 6.19775 18.0664 7.60889 18.0664ZM7.49268 16.8628C6.97803 16.8628 6.6875 16.5889 6.6875 16.0493V9.80713C6.6875 9.26758 6.97803 8.99365 7.49268 8.99365H16.499C17.0137 8.99365 17.3125 9.26758 17.3125 9.80713V16.0493C17.3125 16.5889 17.0137 16.8628 16.499 16.8628H7.49268ZM10.7383 11.3428H11.1201C11.3691 11.3428 11.4521 11.2598 11.4521 11.019V10.6372C11.4521 10.3965 11.3691 10.3135 11.1201 10.3135H10.7383C10.4976 10.3135 10.4146 10.3965 10.4146 10.6372V11.019C10.4146 11.2598 10.4976 11.3428 10.7383 11.3428ZM12.8799 11.3428H13.2617C13.5024 11.3428 13.5854 11.2598 13.5854 11.019V10.6372C13.5854 10.3965 13.5024 10.3135 13.2617 10.3135H12.8799C12.6309 10.3135 12.5479 10.3965 12.5479 10.6372V11.019C12.5479 11.2598 12.6309 11.3428 12.8799 11.3428ZM15.0132 11.3428H15.395C15.6357 11.3428 15.7271 11.2598 15.7271 11.019V10.6372C15.7271 10.3965 15.6357 10.3135 15.395 10.3135H15.0132C14.7642 10.3135 14.6812 10.3965 14.6812 10.6372V11.019C14.6812 11.2598 14.7642 11.3428 15.0132 11.3428ZM8.60498 13.4429H8.98682C9.23584 13.4429 9.31885 13.3599 9.31885 13.1191V12.7373C9.31885 12.4966 9.23584 12.4136 8.98682 12.4136H8.60498C8.36426 12.4136 8.27295 12.4966 8.27295 12.7373V13.1191C8.27295 13.3599 8.36426 13.4429 8.60498 13.4429ZM10.7383 13.4429H11.1201C11.3691 13.4429 11.4521 13.3599 11.4521 13.1191V12.7373C11.4521 12.4966 11.3691 12.4136 11.1201 12.4136H10.7383C10.4976 12.4136 10.4146 12.4966 10.4146 12.7373V13.1191C10.4146 13.3599 10.4976 13.4429 10.7383 13.4429ZM12.8799 13.4429H13.2617C13.5024 13.4429 13.5854 13.3599 13.5854 13.1191V12.7373C13.5854 12.4966 13.5024 12.4136 13.2617 12.4136H12.8799C12.6309 12.4136 12.5479 12.4966 12.5479 12.7373V13.1191C12.5479 13.3599 12.6309 13.4429 12.8799 13.4429ZM15.0132 13.4429H15.395C15.6357 13.4429 15.7271 13.3599 15.7271 13.1191V12.7373C15.7271 12.4966 15.6357 12.4136 15.395 12.4136H15.0132C14.7642 12.4136 14.6812 12.4966 14.6812 12.7373V13.1191C14.6812 13.3599 14.7642 13.4429 15.0132 13.4429ZM8.60498 15.543H8.98682C9.23584 15.543 9.31885 15.46 9.31885 15.2192V14.8374C9.31885 14.5967 9.23584 14.5137 8.98682 14.5137H8.60498C8.36426 14.5137 8.27295 14.5967 8.27295 14.8374V15.2192C8.27295 15.46 8.36426 15.543 8.60498 15.543ZM10.7383 15.543H11.1201C11.3691 15.543 11.4521 15.46 11.4521 15.2192V14.8374C11.4521 14.5967 11.3691 14.5137 11.1201 14.5137H10.7383C10.4976 14.5137 10.4146 14.5967 10.4146 14.8374V15.2192C10.4146 15.46 10.4976 15.543 10.7383 15.543ZM12.8799 15.543H13.2617C13.5024 15.543 13.5854 15.46 13.5854 15.2192V14.8374C13.5854 14.5967 13.5024 14.5137 13.2617 14.5137H12.8799C12.6309 14.5137 12.5479 14.5967 12.5479 14.8374V15.2192C12.5479 15.46 12.6309 15.543 12.8799 15.543Z" fill="#666666"/>
</svg>
