<svg width="24" height="24" viewBox="0 0 24 24" fill="none" xmlns="http://www.w3.org/2000/svg">
<path d="M4.81152 9.15137H19.1885V8.52051C19.1885 7.12598 18.4829 6.43701 17.0718 6.43701H6.92822C5.50879 6.43701 4.81152 7.12598 4.81152 8.52051V9.15137ZM4.81152 15.4019C4.81152 16.7964 5.50879 17.4854 6.92822 17.4854H17.0718C18.4829 17.4854 19.1885 16.7964 19.1885 15.4019V10.6372H4.81152V15.4019ZM7.03613 13.8164V12.6128C7.03613 12.2476 7.29346 11.9902 7.67529 11.9902H9.26904C9.65088 11.9902 9.9082 12.2476 9.9082 12.6128V13.8164C9.9082 14.1816 9.65088 14.439 9.26904 14.439H7.67529C7.29346 14.439 7.03613 14.1816 7.03613 13.8164Z" fill="#666666"/>
</svg>
