<svg width="24" height="24" viewBox="0 0 24 24" fill="none" xmlns="http://www.w3.org/2000/svg">
<path d="M16.9224 18.0581H18.8481C19.7861 18.0581 20.2676 17.6016 20.2676 16.7217V7.30859C20.2676 6.42871 19.7861 5.98047 18.8481 5.98047H16.9224C15.9927 5.98047 15.5112 6.42871 15.5112 7.30859V16.7217C15.5112 17.6016 15.9927 18.0581 16.9224 18.0581ZM11.0371 18.0581H12.9629C13.9009 18.0581 14.3823 17.6016 14.3823 16.7217V9.21777C14.3823 8.33789 13.9009 7.88135 12.9629 7.88135H11.0371C10.1074 7.88135 9.61768 8.33789 9.61768 9.21777V16.7217C9.61768 17.6016 10.1074 18.0581 11.0371 18.0581ZM5.14355 18.0581H7.06934C8.00732 18.0581 8.48877 17.6016 8.48877 16.7217V11.1187C8.48877 10.2388 8.00732 9.79053 7.06934 9.79053H5.14355C4.21387 9.79053 3.73242 10.2388 3.73242 11.1187V16.7217C3.73242 17.6016 4.21387 18.0581 5.14355 18.0581Z" fill="#666666"/>
</svg>
