<svg width="12" height="12" viewBox="0 0 12 12" fill="none" xmlns="http://www.w3.org/2000/svg">
<path d="M4.69678 11.8506C5.02051 11.8506 5.27783 11.7095 5.46045 11.4272L11.5117 1.85645C11.6528 1.64062 11.7026 1.46631 11.7026 1.29199C11.7026 0.885254 11.437 0.611328 11.022 0.611328C10.7231 0.611328 10.5571 0.710938 10.3745 1.00146L4.66357 10.1655L1.65869 6.11475C1.46777 5.85742 1.28516 5.74951 1.01123 5.74951C0.596191 5.74951 0.297363 6.04004 0.297363 6.45508C0.297363 6.62939 0.37207 6.82031 0.513184 7.00293L3.9082 11.4106C4.14062 11.7095 4.37305 11.8506 4.69678 11.8506Z" fill="#666666"/>
</svg>
