<svg width="23" height="21" viewBox="0 0 23 21" fill="none" xmlns="http://www.w3.org/2000/svg">
<path d="M11.4929 10.799C12.6882 10.799 13.7412 9.72461 13.7412 8.32296C13.7412 6.92843 12.6882 5.91811 11.4929 5.91811C10.3047 5.91811 9.25167 6.95689 9.25167 8.33719C9.25167 9.72461 10.3047 10.799 11.4929 10.799ZM5.0752 10.927C6.11398 10.927 7.03181 9.98786 7.03181 8.77121C7.03181 7.55455 6.11398 6.67941 5.0752 6.67941C4.04353 6.67941 3.11858 7.57589 3.11858 8.78544C3.11858 9.98786 4.04353 10.927 5.0752 10.927ZM17.9106 10.927C18.9494 10.927 19.8743 9.98786 19.8743 8.78544C19.8743 7.57589 18.9494 6.67941 17.9106 6.67941C16.8789 6.67941 15.9611 7.55455 15.9611 8.77121C15.9611 9.98786 16.8789 10.927 17.9106 10.927ZM2.01576 15.9929H6.09263C5.52344 15.0466 6.29897 13.3532 7.48717 12.4568C6.86816 12.0654 6.08552 11.7808 5.0752 11.7808C2.5565 11.7808 0.976981 13.6592 0.976981 15.1889C0.976981 15.6941 1.25446 15.9929 2.01576 15.9929ZM20.9771 15.9929C21.7384 15.9929 22.0159 15.6941 22.0159 15.1889C22.0159 13.6592 20.4364 11.7808 17.9177 11.7808C16.9074 11.7808 16.1247 12.0654 15.4986 12.4568C16.6939 13.3532 17.4694 15.0466 16.9003 15.9929H20.9771ZM8.05636 15.9929H14.9365C15.8899 15.9929 16.203 15.7225 16.203 15.2316C16.203 13.7872 14.3958 11.7951 11.4929 11.7951C8.5971 11.7951 6.7899 13.7872 6.7899 15.2316C6.7899 15.7225 7.10296 15.9929 8.05636 15.9929Z" fill="#666666"/>
</svg>
