<svg width="24" height="24" viewBox="0 0 24 24" fill="none" xmlns="http://www.w3.org/2000/svg">
<path d="M18.6701 6H5.33008C4.93225 6 4.55072 6.15804 4.26942 6.43934C3.98811 6.72064 3.83008 7.10218 3.83008 7.5V15.2V15.52C3.83518 15.7511 3.85522 15.9815 3.89008 16.21C3.93306 16.4358 4.0071 16.6545 4.11008 16.86C4.22026 17.0647 4.35824 17.2531 4.52008 17.42C4.68827 17.582 4.88055 17.7169 5.09008 17.82C5.29844 17.9245 5.5207 17.9986 5.75008 18.04C5.97854 18.0749 6.20903 18.0949 6.44008 18.1H17.5601C17.7911 18.0949 18.0216 18.0749 18.2501 18.04C18.4823 17.9971 18.7076 17.9231 18.9201 17.82C19.1251 17.7144 19.3137 17.5797 19.4801 17.42C19.6419 17.2531 19.7799 17.0647 19.8901 16.86C19.9931 16.6545 20.0671 16.4358 20.1101 16.21C20.1449 15.9815 20.165 15.7511 20.1701 15.52V7.52C20.1727 7.32134 20.1359 7.12413 20.0617 6.93983C19.9875 6.75553 19.8774 6.5878 19.7379 6.44639C19.5983 6.30497 19.4321 6.19269 19.2488 6.11606C19.0655 6.03943 18.8688 5.99998 18.6701 6V6ZM19.4701 12.14H15.6401C15.4593 12.1467 15.279 12.1634 15.1001 12.19C14.9232 12.2235 14.7517 12.2806 14.5901 12.36C14.23 12.557 13.9296 12.8471 13.7201 13.2C13.5388 13.4985 13.2854 13.7466 12.983 13.9214C12.6807 14.0961 12.3392 14.1919 11.9901 14.2C11.6398 14.1909 11.2974 14.0947 10.9936 13.9201C10.6898 13.7455 10.4343 13.498 10.2501 13.2C10.0469 12.8422 9.74481 12.5505 9.38008 12.36C9.21955 12.2781 9.04763 12.2208 8.87008 12.19C8.69442 12.1639 8.51751 12.1472 8.34008 12.14H4.53008V11.14C4.53008 10.9278 4.61436 10.7243 4.76439 10.5743C4.91442 10.4243 5.1179 10.34 5.33008 10.34H18.6701C18.8823 10.34 19.0857 10.4243 19.2358 10.5743C19.3858 10.7243 19.4701 10.9278 19.4701 11.14V12.14ZM19.4701 9.86C19.2319 9.70625 18.9536 9.62624 18.6701 9.63H5.33008C5.04658 9.62624 4.76829 9.70625 4.53008 9.86V9.26C4.53008 9.04783 4.61436 8.84434 4.76439 8.69431C4.91442 8.54429 5.1179 8.46 5.33008 8.46H18.6701C18.8823 8.46 19.0857 8.54429 19.2358 8.69431C19.3858 8.84434 19.4701 9.04783 19.4701 9.26V9.86ZM19.4701 8.05C19.2327 7.89327 18.9545 7.8098 18.6701 7.81H5.33008C5.04564 7.8098 4.76743 7.89327 4.53008 8.05V7.45C4.53008 7.23783 4.61436 7.03434 4.76439 6.88431C4.91442 6.73429 5.1179 6.65 5.33008 6.65H18.6701C18.8823 6.65 19.0857 6.73429 19.2358 6.88431C19.3858 7.03434 19.4701 7.23783 19.4701 7.45V8.05Z" fill="#666666"/>
</svg>
