<svg width="48" height="48" viewBox="0 0 48 48" fill="none" xmlns="http://www.w3.org/2000/svg">
<circle cx="24" cy="24" r="24" fill="#FFFEFC"/>
<path d="M39.3335 24.3649C39.3348 23.2746 39.2427 22.1862 39.0582 21.1117H23.9839V27.2737H32.6178C32.4411 28.2579 32.0671 29.196 31.5185 30.0316C30.9698 30.8673 30.2578 31.583 29.4253 32.1358V36.1356H34.5781C37.5952 33.3513 39.3335 29.2336 39.3335 24.3649Z" fill="#4285F4"/>
<path d="M23.9839 40C28.2975 40 31.9295 38.5822 34.5781 36.1379L29.4253 32.138C27.9911 33.1113 26.144 33.6668 23.9839 33.6668C19.8146 33.6668 16.2758 30.8536 15.0103 27.0626H9.70215V31.1847C11.0326 33.8346 13.0726 36.0622 15.5945 37.6188C18.1165 39.1754 21.021 39.9998 23.9839 40Z" fill="#34A853"/>
<path d="M15.0103 27.0627C14.3413 25.0762 14.3413 22.925 15.0103 20.9385V16.8164H9.70207C8.58288 19.0456 8 21.5058 8 24.0006C8 26.4954 8.58288 28.9557 9.70207 31.1848L15.0103 27.0627Z" fill="#FBBC04"/>
<path d="M23.9839 14.3342C26.2634 14.2969 28.4661 15.159 30.1157 16.7341L34.678 12.1676C31.785 9.44784 27.9525 7.95465 23.9839 8.00105C21.021 8.00118 18.1165 8.82559 15.5945 10.3822C13.0726 11.9389 11.0326 14.1664 9.70215 16.8163L15.0103 20.9384C16.2758 17.1474 19.8146 14.3342 23.9839 14.3342Z" fill="#EA4335"/>
</svg>
