<svg width="108" height="37" viewBox="0 0 108 37" fill="none" xmlns="http://www.w3.org/2000/svg">
<path d="M4.92 24.96H0.87C0.91 26 1.14 26.87 1.56 27.57C2 28.25 2.55 28.8 3.21 29.22C3.89 29.64 4.66 29.94 5.52 30.12C6.38 30.3 7.26 30.39 8.16 30.39C9.04 30.39 9.9 30.3 10.74 30.12C11.6 29.96 12.36 29.67 13.02 29.25C13.68 28.83 14.21 28.28 14.61 27.6C15.03 26.9 15.24 26.04 15.24 25.02C15.24 24.3 15.1 23.7 14.82 23.22C14.54 22.72 14.17 22.31 13.71 21.99C13.25 21.65 12.72 21.38 12.12 21.18C11.54 20.98 10.94 20.81 10.32 20.67C9.72 20.53 9.13 20.4 8.55 20.28C7.97 20.16 7.45 20.03 6.99 19.89C6.55 19.73 6.19 19.53 5.91 19.29C5.63 19.05 5.49 18.74 5.49 18.36C5.49 18.04 5.57 17.79 5.73 17.61C5.89 17.41 6.08 17.26 6.3 17.16C6.54 17.06 6.8 17 7.08 16.98C7.36 16.94 7.62 16.92 7.86 16.92C8.62 16.92 9.28 17.07 9.84 17.37C10.4 17.65 10.71 18.2 10.77 19.02H14.82C14.74 18.06 14.49 17.27 14.07 16.65C13.67 16.01 13.16 15.5 12.54 15.12C11.92 14.74 11.21 14.47 10.41 14.31C9.63 14.15 8.82 14.07 7.98 14.07C7.14 14.07 6.32 14.15 5.52 14.31C4.72 14.45 4 14.71 3.36 15.09C2.72 15.45 2.2 15.95 1.8 16.59C1.42 17.23 1.23 18.05 1.23 19.05C1.23 19.73 1.37 20.31 1.65 20.79C1.93 21.25 2.3 21.64 2.76 21.96C3.22 22.26 3.74 22.51 4.32 22.71C4.92 22.89 5.53 23.05 6.15 23.19C7.67 23.51 8.85 23.83 9.69 24.15C10.55 24.47 10.98 24.95 10.98 25.59C10.98 25.97 10.89 26.29 10.71 26.55C10.53 26.79 10.3 26.99 10.02 27.15C9.76 27.29 9.46 27.4 9.12 27.48C8.8 27.54 8.49 27.57 8.19 27.57C7.77 27.57 7.36 27.52 6.96 27.42C6.58 27.32 6.24 27.17 5.94 26.97C5.64 26.75 5.39 26.48 5.19 26.16C5.01 25.82 4.92 25.42 4.92 24.96ZM32.2833 30V14.49H28.0233V22.62C28.0233 24.2 27.7633 25.34 27.2433 26.04C26.7233 26.72 25.8833 27.06 24.7233 27.06C23.7033 27.06 22.9933 26.75 22.5933 26.13C22.1933 25.49 21.9933 24.53 21.9933 23.25V14.49H17.7333V24.03C17.7333 24.99 17.8133 25.87 17.9733 26.67C18.1533 27.45 18.4533 28.12 18.8733 28.68C19.2933 29.22 19.8633 29.64 20.5833 29.94C21.3233 30.24 22.2633 30.39 23.4033 30.39C24.3033 30.39 25.1833 30.19 26.0433 29.79C26.9033 29.39 27.6033 28.74 28.1433 27.84H28.2333V30H32.2833ZM35.5165 14.49V30H39.7765V23.01C39.7765 22.31 39.8465 21.66 39.9865 21.06C40.1265 20.46 40.3565 19.94 40.6765 19.5C41.0165 19.04 41.4565 18.68 41.9965 18.42C42.5365 18.16 43.1965 18.03 43.9765 18.03C44.2365 18.03 44.5065 18.05 44.7865 18.09C45.0665 18.11 45.3065 18.14 45.5065 18.18V14.22C45.1665 14.12 44.8565 14.07 44.5765 14.07C44.0365 14.07 43.5165 14.15 43.0165 14.31C42.5165 14.47 42.0465 14.7 41.6065 15C41.1665 15.28 40.7765 15.63 40.4365 16.05C40.0965 16.45 39.8265 16.89 39.6265 17.37H39.5665V14.49H35.5165ZM52.3366 18.66V12.24H55.9966C56.5366 12.24 57.0566 12.28 57.5566 12.36C58.0566 12.44 58.4966 12.6 58.8766 12.84C59.2566 13.06 59.5566 13.38 59.7766 13.8C60.0166 14.22 60.1366 14.77 60.1366 15.45C60.1366 16.13 60.0166 16.68 59.7766 17.1C59.5566 17.52 59.2566 17.85 58.8766 18.09C58.4966 18.31 58.0566 18.46 57.5566 18.54C57.0566 18.62 56.5366 18.66 55.9966 18.66H52.3366ZM47.6266 8.58V30H52.3366V22.32H57.2866C58.6266 22.32 59.7666 22.13 60.7066 21.75C61.6466 21.35 62.4066 20.83 62.9866 20.19C63.5866 19.55 64.0166 18.82 64.2766 18C64.5566 17.16 64.6966 16.31 64.6966 15.45C64.6966 14.57 64.5566 13.72 64.2766 12.9C64.0166 12.08 63.5866 11.35 62.9866 10.71C62.4066 10.07 61.6466 9.56 60.7066 9.18C59.7666 8.78 58.6266 8.58 57.2866 8.58H47.6266ZM67.3064 8.58V30H71.5664V8.58H67.3064ZM89.4708 30V14.49H85.2108V22.62C85.2108 24.2 84.9508 25.34 84.4308 26.04C83.9108 26.72 83.0708 27.06 81.9108 27.06C80.8908 27.06 80.1808 26.75 79.7808 26.13C79.3808 25.49 79.1808 24.53 79.1808 23.25V14.49H74.9208V24.03C74.9208 24.99 75.0008 25.87 75.1608 26.67C75.3408 27.45 75.6408 28.12 76.0608 28.68C76.4808 29.22 77.0508 29.64 77.7708 29.94C78.5108 30.24 79.4508 30.39 80.5908 30.39C81.4908 30.39 82.3708 30.19 83.2308 29.79C84.0908 29.39 84.7908 28.74 85.3308 27.84H85.4208V30H89.4708ZM96.004 24.96H91.954C91.994 26 92.224 26.87 92.644 27.57C93.084 28.25 93.634 28.8 94.294 29.22C94.974 29.64 95.744 29.94 96.604 30.12C97.464 30.3 98.344 30.39 99.244 30.39C100.124 30.39 100.984 30.3 101.824 30.12C102.684 29.96 103.444 29.67 104.104 29.25C104.764 28.83 105.294 28.28 105.694 27.6C106.114 26.9 106.324 26.04 106.324 25.02C106.324 24.3 106.184 23.7 105.904 23.22C105.624 22.72 105.254 22.31 104.794 21.99C104.334 21.65 103.804 21.38 103.204 21.18C102.624 20.98 102.024 20.81 101.404 20.67C100.804 20.53 100.214 20.4 99.634 20.28C99.054 20.16 98.534 20.03 98.074 19.89C97.634 19.73 97.274 19.53 96.994 19.29C96.714 19.05 96.574 18.74 96.574 18.36C96.574 18.04 96.654 17.79 96.814 17.61C96.974 17.41 97.164 17.26 97.384 17.16C97.624 17.06 97.884 17 98.164 16.98C98.444 16.94 98.704 16.92 98.944 16.92C99.704 16.92 100.364 17.07 100.924 17.37C101.484 17.65 101.794 18.2 101.854 19.02H105.904C105.824 18.06 105.574 17.27 105.154 16.65C104.754 16.01 104.244 15.5 103.624 15.12C103.004 14.74 102.294 14.47 101.494 14.31C100.714 14.15 99.904 14.07 99.064 14.07C98.224 14.07 97.404 14.15 96.604 14.31C95.804 14.45 95.084 14.71 94.444 15.09C93.804 15.45 93.284 15.95 92.884 16.59C92.504 17.23 92.314 18.05 92.314 19.05C92.314 19.73 92.454 20.31 92.734 20.79C93.014 21.25 93.384 21.64 93.844 21.96C94.304 22.26 94.824 22.51 95.404 22.71C96.004 22.89 96.614 23.05 97.234 23.19C98.754 23.51 99.934 23.83 100.774 24.15C101.634 24.47 102.064 24.95 102.064 25.59C102.064 25.97 101.974 26.29 101.794 26.55C101.614 26.79 101.384 26.99 101.104 27.15C100.844 27.29 100.544 27.4 100.204 27.48C99.884 27.54 99.574 27.57 99.274 27.57C98.854 27.57 98.444 27.52 98.044 27.42C97.664 27.32 97.324 27.17 97.024 26.97C96.724 26.75 96.474 26.48 96.274 26.16C96.094 25.82 96.004 25.42 96.004 24.96Z" fill="url(#paint0_linear)"/>
<defs>
<linearGradient id="paint0_linear" x1="5.14099e-07" y1="22.2755" x2="108" y2="22.2755" gradientUnits="userSpaceOnUse">
<stop stop-color="#8610EB"/>
<stop offset="1" stop-color="#430985"/>
</linearGradient>
</defs>
</svg>
